<?xml version="1.0" standalone="no"?>
<!DOCTYPE svg PUBLIC "-//W3C//DTD SVG 1.1//EN" "http://www.w3.org/Graphics/SVG/1.1/DTD/svg11.dtd" >
<!--
2013-9-30: Created.
-->
<svg>
<metadata>
Created by iconfont
</metadata>
<defs>

<font id="iconfont" horiz-adv-x="1024" >
  <font-face
    font-family="iconfont"
    font-weight="500"
    font-stretch="normal"
    units-per-em="1024"
    ascent="896"
    descent="-128"
  />
    <missing-glyph />
    
    <glyph glyph-name="x" unicode="x" horiz-adv-x="1001"
d="M281 543q-27 -1 -53 -1h-83q-18 0 -36.5 -6t-32.5 -18.5t-23 -32t-9 -45.5v-76h912v41q0 16 -0.5 30t-0.5 18q0 13 -5 29t-17 29.5t-31.5 22.5t-49.5 9h-133v-97h-438v97zM955 310v-52q0 -23 0.5 -52t0.5 -58t-10.5 -47.5t-26 -30t-33 -16t-31.5 -4.5q-14 -1 -29.5 -0.5
t-29.5 0.5h-32l-45 128h-439l-44 -128h-29h-34q-20 0 -45 1q-25 0 -41 9.5t-25.5 23t-13.5 29.5t-4 30v167h911zM163 247q-12 0 -21 -8.5t-9 -21.5t9 -21.5t21 -8.5q13 0 22 8.5t9 21.5t-9 21.5t-22 8.5zM316 123q-8 -26 -14 -48q-5 -19 -10.5 -37t-7.5 -25t-3 -15t1 -14.5
t9.5 -10.5t21.5 -4h37h67h81h80h64h36q23 0 34 12t2 38q-5 13 -9.5 30.5t-9.5 34.5q-5 19 -11 39h-368zM336 498v228q0 11 2.5 23t10 21.5t20.5 15.5t34 6h188q31 0 51.5 -14.5t20.5 -52.5v-227h-327z" />
    

    
    <glyph glyph-name="gouwuche" unicode="&#58907;" d="M347.136 112.64q19.456 0 36.864-7.168t30.72-19.968 20.48-30.208 7.168-36.864-7.168-36.864-20.48-30.208-30.72-20.48-36.864-7.68q-20.48 0-37.376 7.68t-30.208 20.48-20.48 30.208-7.168 36.864 7.168 36.864 20.48 30.208 30.208 19.968 37.376 7.168zM773.12 110.592q19.456 0 37.376-7.168t30.72-19.968 20.48-30.208 7.68-36.864-7.68-36.864-20.48-30.208-30.72-20.48-37.376-7.68-36.864 7.68-30.208 20.48-20.48 30.208-7.68 36.864 7.68 36.864 20.48 30.208 30.208 19.968 36.864 7.168zM945.152 692.224q28.672 0 44.544-7.68t22.528-18.944 6.144-24.064-3.584-22.016-12.8-37.888-22.016-62.976-24.064-68.096-17.92-53.248q-13.312-40.96-33.792-56.832t-50.176-15.872l-34.816 0-66.56 0-87.04 0-95.232 0-253.952 0 15.36-92.16 516.096 0q49.152 0 49.152-41.984 0-20.48-9.728-35.328t-38.4-14.848l-49.152 0-95.232 0-117.76 0-119.808 0-98.304 0-56.32 0q-20.48 0-34.304 9.216t-23.04 24.064-14.848 32.256-8.704 32.768q-1.024 6.144-5.632 29.696t-11.264 58.88-14.848 78.848-16.384 87.552q-19.456 103.424-44.032 230.4l-76.8 0q-15.36 0-25.6 7.68t-16.896 18.432-9.216 23.04-2.56 22.528q0 20.48 13.824 33.792t37.376 13.312l22.528 0 20.48 0 25.6 0 34.816 0q20.48 0 32.768-6.144t19.456-15.36 10.24-19.456 5.12-17.408q2.048-8.192 4.096-23.04t4.096-30.208q3.072-18.432 6.144-38.912l700.416 0z"  horiz-adv-x="1024" />

    
    <glyph glyph-name="shengriliwu" unicode="&#58885;" d="M848.794624-43.156685 571.780416-43.156685 571.780416 242.82877l341.897539 0 0-221.100654C913.677926-13.960704 884.482867-43.156685 848.794624-43.156685zM571.780403 577.256448c-11.861606 3.210138-31.443354 8.36864-39.829709 16.176435-0.596582 0.561766-1.016218 1.246413-1.613824 1.841971-0.560845-0.596582-1.016218-1.280205-1.613824-1.841971-8.386355-7.807795-15.96631-12.965274-27.827917-16.176435l0-263.544325L141.030675 313.712123 141.030675 540.797116c0 35.687834 29.195059 64.882688 64.883302 64.882688l150.649125 0c-16.984474 9.525965-32.846438 20.56233-46.111027 32.932045-60.250624 56.144691-71.129907 137.062605-24.283034 180.767027 19.615539 18.264986 46.252237 27.124736 75.026739 27.124736 39.933133 0 83.972915-17.070797 118.995968-49.706086 20.353331-18.983322 37.722624-43.405619 50.145075-69.056819 12.457267 25.6512 29.791744 50.074419 50.180915 69.056819 35.022029 32.63529 79.062835 49.706086 118.994944 49.706086 28.74071 0 55.410176-8.860774 75.025715-27.124736 46.882611-43.704422 35.96759-124.622336-24.283034-180.767027-13.264589-12.368691-29.127578-23.40608-46.111027-32.932045l144.649234 0c35.688243 0 64.882278-29.195981 64.882278-64.882688l0-227.084948L571.780416 313.712167 571.780416 577.256492zM435.064218 748.374733c-21.476966 19.965747-49.094144 31.913882-73.868288 31.913882-7.404954 0-21.125018-1.211597-29.863322-9.386803-2.000691-1.824563-8.070144-7.439462-8.070144-21.369754 0-15.650406 8.492749-40.24873 32.319386-62.477926 29.124506-27.12576 77.202432-47.601152 111.76704-47.601152 12.176794 0 16.492237 2.666701 16.527053 2.702541C489.524736 653.45495 475.664486 710.546227 435.064218 748.374733zM577.78135 641.209037c0 0 0.034816 0.034816 0.069632 0.034816 0.807424 0 5.50871-1.790771 15.509914-1.790771 34.564608 0 82.64151 20.47529 111.76704 47.601152 23.826637 22.229299 32.283546 46.810112 32.283546 62.442189 0 13.930291-6.033613 19.562496-8.035328 21.404467-8.77312 8.17623-22.457344 9.386803-29.864346 9.386803-24.808038 0-52.390298-11.948134-73.867264-31.913882C585.325466 710.791782 571.358822 654.26135 577.78135 641.209037zM500.89513-43.156685 205.914017-43.156685c-35.688243 0-64.883302 29.195981-64.883302 64.883712L141.030714 242.82877l359.864462 0L500.895177-43.15666z"  horiz-adv-x="1024" />

    
    <glyph glyph-name="nvbao" unicode="&#58888;" d="M503.88107 511.365709q29.43112 1.014866 48.206145 8.11893t32.983152 12.178394q13.193261 5.074331 30.953419 22.327056t28.923687 39.579782q5.074331 11.163528 12.685828 14.71556t15.730426 2.537166 16.745292-5.074331 15.730426-7.104063 21.819623-11.163528 31.968285-17.252725 35.520317-18.267592 31.460852-15.222993q23.341923-10.148662 33.490585-22.83449t16.237859-21.819623q3.044599-5.074331 12.685828-21.819623t21.31219-39.579782 23.341923-49.728444 17.760159-52.26561q6.089197-26.386521 10.656095-51.250743t1.014866-48.713578-18.267592-46.176412-46.176412-42.624381q-32.475719-20.297324-79.666997-37.042616t-101.48662-29.43112-109.60555-19.789891-104.023786-7.104063-103.516353 7.104063-107.068385 18.775025-97.427156 27.401388-73.5778 31.968285-45.161546 32.475719-24.356789 33.998018-8.626363 38.564916 1.014866 47.191278q2.029732 25.371655 12.685828 56.832507t24.356789 60.891972 26.386521 52.773043 19.789891 33.490585q6.089197 9.133796 16.745292 23.849356t30.953419 22.83449q10.148662 4.059465 28.923687 13.700694t40.087215 20.297324 41.102081 21.31219 32.983152 16.745292q10.148662 5.074331 17.760159 4.566898t12.685828-3.552032 8.11893-7.104063 5.074331-7.104063q3.044599-5.074331 10.148662-17.760159t35.520317-35.012884q14.208127-11.163528 30.445986-16.745292t30.445986-8.626363q17.252725-4.059465 34.505451-4.059465zM504.895937 896l8.11893 0q6.089197 0 15.730426-3.044599t23.849356-10.656095 32.475719-23.849356q19.282458-17.252725 36.535183-39.072349t30.445986-41.609514 20.804757-33.998018 8.626363-17.252725l3.044599-10.148662q3.044599-8.11893 3.044599-16.237859t-4.059465-16.237859-15.222993-12.178394q-12.178394-4.059465-21.31219-2.029732t-14.71556 7.104063-8.11893 11.670961-1.522299 11.670961q2.029732 14.208127 0.507433 24.864222t-11.670961 30.953419q-11.163528 24.356789-27.401388 46.683845t-27.401388 34.505451q-10.148662 11.163528-24.864222 17.252725t-27.908821 6.089197q-18.267592-1.014866-32.475719-9.641229t-24.356789-17.760159q-5.074331-5.074331-11.670961-14.71556t-13.700694-20.804757-13.700694-21.819623-9.641229-16.745292q-7.104063-13.193261-10.656095-22.327056t-1.522299-31.460852-9.133796-29.938553-25.371655-5.581764q-14.208127 1.014866-25.371655 13.193261t-3.044599 34.505451q4.059465 11.163528 13.700694 27.401388t21.819623 34.505451 26.386521 36.02775 27.401388 31.968285q26.386521 28.416254 48.713578 38.564916t43.639247 10.148662z"  horiz-adv-x="1024" />

    
    <glyph glyph-name="liebiao" unicode="&#58898;" d="M187.392 825.344q28.672 0 48.64-19.456t19.968-48.128l0-52.224q0-28.672-19.968-48.64t-48.64-19.968l-54.272 0q-27.648 0-47.616 19.968t-19.968 48.64l0 52.224q0 28.672 19.968 48.128t47.616 19.456l54.272 0zM889.856 825.344q27.648 0 47.616-19.456t19.968-48.128l0-52.224q0-28.672-19.968-48.64t-47.616-19.968l-437.248 0q-28.672 0-48.64 19.968t-19.968 48.64l0 52.224q0 28.672 19.968 48.128t48.64 19.456l437.248 0zM187.392 506.88q28.672 0 48.64-19.968t19.968-48.64l0-52.224q0-27.648-19.968-47.616t-48.64-19.968l-54.272 0q-27.648 0-47.616 19.968t-19.968 47.616l0 52.224q0 28.672 19.968 48.64t47.616 19.968l54.272 0zM889.856 506.88q27.648 0 47.616-19.968t19.968-48.64l0-52.224q0-27.648-19.968-47.616t-47.616-19.968l-437.248 0q-28.672 0-48.64 19.968t-19.968 47.616l0 52.224q0 28.672 19.968 48.64t48.64 19.968l437.248 0zM187.392 187.392q28.672 0 48.64-19.968t19.968-47.616l0-52.224q0-28.672-19.968-48.64t-48.64-19.968l-54.272 0q-27.648 0-47.616 19.968t-19.968 48.64l0 52.224q0 27.648 19.968 47.616t47.616 19.968l54.272 0zM889.856 187.392q27.648 0 47.616-19.968t19.968-47.616l0-52.224q0-28.672-19.968-48.64t-47.616-19.968l-437.248 0q-28.672 0-48.64 19.968t-19.968 48.64l0 52.224q0 27.648 19.968 47.616t48.64 19.968l437.248 0z"  horiz-adv-x="1024" />

    
    <glyph glyph-name="gouwucheman" unicode="&#58889;" d="M346.112 89.088q19.456 0 36.864-7.168t30.208-19.968 20.48-30.208 7.68-36.864-7.68-36.864-20.48-30.208-30.208-20.48-36.864-7.68q-20.48 0-37.888 7.68t-30.208 20.48-20.48 30.208-7.68 36.864 7.68 36.864 20.48 30.208 30.208 19.968 37.888 7.168zM772.096 87.04q19.456 0 37.376-7.168t30.72-19.968 20.48-30.208 7.68-36.864-7.68-36.864-20.48-30.208-30.72-20.48-37.376-7.68-36.864 7.68-30.208 20.48-20.48 30.208-7.68 36.864 7.68 36.864 20.48 30.208 30.208 19.968 36.864 7.168zM944.128 668.672q28.672 0 44.544-7.68t22.528-18.944 6.144-24.064-3.584-22.016-13.312-37.888-22.016-62.976-23.552-68.096-18.944-53.248q-13.312-40.96-33.28-56.832t-49.664-15.872l-35.84 0-65.536 0-86.016 0-96.256 0-253.952 0 14.336-92.16 517.12 0q49.152 0 49.152-41.984 0-20.48-9.728-35.328t-38.4-14.848l-49.152 0-94.208 0-118.784 0-119.808 0-99.328 0-55.296 0q-20.48 0-34.304 9.216t-23.04 24.064-14.848 32.256-8.704 32.768q-1.024 6.144-5.632 29.696t-11.264 58.88-14.848 78.848-16.384 87.552q-19.456 103.424-44.032 230.4l-76.8 0q-15.36 0-25.6 7.68t-16.896 18.432-9.216 23.04-2.56 22.528q0 20.48 13.824 33.792t37.376 13.312l21.504 0 21.504 0 25.6 0 34.816 0q20.48 0 32.768-6.144t19.456-15.36 10.24-19.456 5.12-17.408q2.048-8.192 4.096-23.04t4.096-30.208q3.072-18.432 6.144-38.912l700.416 0zM867.328 701.44l-374.784 0 135.168 135.168q23.552 23.552 51.712 24.064t51.712-23.04z"  horiz-adv-x="1024" />

    
    <glyph glyph-name="chuzu" unicode="&#58890;" d="M1025.024 115.712l-128 0 0-59.392q0-26.624-18.432-45.056t-45.056-18.432l-64.512 0q-26.624 0-45.056 18.432t-18.432 45.056l0 59.392-384 0 0-59.392q0-26.624-18.944-45.056t-45.568-18.432l-64.512 0q-26.624 0-45.056 18.432t-18.432 45.056l0 59.392-129.024 0 0 201.728q0 57.344 36.352 89.088t91.648 35.84q4.096 17.408 12.8 47.104t18.432 64 20.48 68.608 19.968 60.928q27.648 77.824 115.712 77.824l397.312 0q39.936 0 65.536-22.016t35.84-51.712l21.504-63.488q11.264-34.816 23.04-69.632t22.016-65.024 16.384-46.592q55.296-5.12 91.648-36.864t36.352-88.064l0-201.728zM125.952 247.808q26.624 0 45.568 18.432t18.944 45.056-18.944 45.568-45.568 18.944-45.056-18.944-18.432-45.568 18.432-45.056 45.056-18.432zM793.6 441.344l-37.888 187.392-487.424 0-33.792-187.392 559.104 0zM896 247.808q26.624 0 46.08 19.456t19.456 46.08q0 27.648-19.456 46.592t-46.08 18.944q-27.648 0-46.592-18.944t-18.944-46.592q0-26.624 18.944-46.08t46.592-19.456z"  horiz-adv-x="1026" />

    
    <glyph glyph-name="tesefuwu" unicode="&#58891;" d="M512.537805 891.906765C232.773837 891.906765 5.172019 664.314266 5.172019 384.560742c0-279.736115 227.601818-507.32759 507.365786-507.32759 279.76704 0 507.368858 227.591475 507.368858 507.32759C1019.90656 664.314266 792.303718 891.906765 512.537805 891.906765zM512.537805-70.843187c-251.129651 0-455.438029 204.298957-455.438029 455.404032 0 251.120333 204.307354 455.422464 455.438029 455.422464 251.130675 0 455.443149-204.299981 455.443149-455.422464C967.979827 133.456794 763.668378-70.843187 512.537805-70.843187zM490.074214 368.368026c-2.18071 14.180966-15.551795 23.882957-29.614694 21.702246l-50.692608-7.808819L409.766912 491.654882l51.927754 0c14.33303 0 25.964339 11.629875 25.964339 25.962291 0 14.33344-11.631411 25.962291-25.964339 25.962291l-51.927754 0 0 86.539982c0 14.334464-11.619123 25.962291-25.962291 25.962291-14.344294 0-25.964339-11.627827-25.964339-25.962291l0-86.539982-34.615774 0 0 51.924603c0 14.33344-11.621171 25.962291-25.964339 25.962291-14.342246 0-25.963315-11.628851-25.963315-25.962291l0-61.676711c0-19.808154-11.89335-31.961907-20.418867-31.961907-14.34327 0-25.964339-11.628851-25.964339-25.962291 0-14.332416 11.621171-25.962291 25.964339-25.962291 26.58048 0 49.602662 16.885555 62.177587 41.715098l44.784784 0 0-117.371174-107.156787-16.496742c-14.174413-2.18071-23.894118-15.431475-21.712384-29.612442 1.968947-12.829184 13.031322-22.00617 25.624678-22.00617 1.310925 0 2.646426 0.101274 3.982848 0.303923l99.263795 15.280026 0-176.258353c0-14.335488 11.620147-25.961267 25.964339-25.961267 14.34327 0 25.962291 11.625779 25.962291 25.961267L409.769138 329.729979l58.605056 9.025536C482.536243 340.936192 492.255027 354.187981 490.074214 368.368026zM755.944141 491.654861 652.091754 491.654861l0 51.924603 86.543528 0c14.334054 0 25.963315 11.629875 25.963315 25.962291 0 14.33344-11.629363 25.962291-25.963315 25.962291l-86.543528 0 0 69.231781c0 14.334464-11.629363 25.962291-25.962291 25.962291-14.335078 0-25.963315-11.626803-25.963315-25.962291l0-69.231781-69.235641 0c-14.335078 0-25.963315-11.628851-25.963315-25.962291 0-14.332416 11.628339-25.962291 25.963315-25.962291l69.235641 0 0-51.924603-86.545574 0c-14.332006 0-25.96137-11.628851-25.96137-25.961267 0-14.33344 11.629363-25.963315 25.96137-25.963315l242.32372 0c14.335078 0 25.963315 11.629875 25.963315 25.963315C781.907558 480.02601 770.278195 491.654861 755.944141 491.654861zM755.944141 370.498458l-51.924684 0 0 34.616402c0 14.33344-11.629363 25.962291-25.964339 25.962291-14.33303 0-25.962291-11.628851-25.962291-25.962291l0-34.616402L513.619448 370.498458c-14.332006 0-25.96137-11.628851-25.96137-25.963315 0-14.332416 11.629363-25.961267 25.96137-25.961267l138.471282 0 0-123.607202c0-23.343616 0-33.01079-48.006246-33.01079-14.33303 0-25.960346-11.630899-25.960346-25.962291 0-14.334464 11.627315-25.963315 25.960346-25.963315 29.903258 0 99.932979 0 99.932979 84.936499L704.017463 318.572872l51.924684 0c14.335078 0 25.963315 11.628851 25.963315 25.961267C781.907558 358.868582 770.278195 370.498458 755.944141 370.498458zM539.583795 292.61056c-14.33303 0-25.964339-11.628851-25.964339-25.961267l0-51.924603c0-14.334464 11.631411-25.963315 25.964339-25.963315 14.335078 0 25.963315 11.628851 25.963315 25.963315l0 51.924603C565.547213 280.981709 553.918874 292.61056 539.583795 292.61056z"  horiz-adv-x="1024" />

    
    <glyph glyph-name="qitianwuliyoutuihuanhuo" unicode="&#58892;" d="M511.219712 890.883482C231.853875 890.883482 4.577485 663.61641 4.577485 384.263987c0-279.337984 227.27639-506.60311 506.642227-506.60311 279.362765 0 506.640179 227.267072 506.640179 506.60311C1017.859891 663.615386 790.582477 890.883482 511.219712 890.883482zM511.219712-70.48919c-250.77248 0-454.789222 204.006298-454.789222 454.753178 0 250.761216 204.016742 454.768538 454.789222 454.768538 250.770432 0 454.788198-204.007322 454.788198-454.768538C966.00791 133.518131 761.990144-70.48919 511.219712-70.48919zM746.51095 501.330227l-303.348019-31.461581L443.162931 612.187049c0 14.31296-11.614003 25.926451-25.926554 25.926451-14.319718 0-25.926554-11.613491-25.926554-25.926451L391.309824 464.502475l-144.862106-15.022182c-14.238822-1.4848-24.592077-14.227046-23.117414-28.456141 1.385574-13.332685 12.642406-23.258726 25.757696-23.258726 0.895386 0 1.799066 0.0512 2.707763 0.135066l139.513037 14.465434 0-128.562051c0-74.68503 20.053504-120.984474 119.894426-120.984474l139.366711 0c28.882944 0 96.499712 0 96.499712 79.226368 0 14.31296-11.612979 25.925427-25.926554 25.925427s-25.927578-11.612467-25.927578-25.925427c0-21.706342-1.76937-27.377562-44.645581-27.377562L511.2023 214.668207c-61.76215 0-68.040397 13.098291-68.040397 69.135565L443.161903 417.748638l308.6848 32.000819c14.24599 1.4848 24.591053 14.229094 23.120486 28.458189C773.485363 492.452045 760.539034 502.732186 746.51095 501.330227z"  horiz-adv-x="1024" />

    
    <glyph glyph-name="zhengpinbaozhang" unicode="&#58893;" d="M522.710283 896c-275.538779 0-499.706581-224.155548-499.706581-499.688149s224.166789-499.686124 499.706581-499.686124c275.545868 0 499.708606 224.153522 499.708606 499.686124C1022.420915 671.844452 798.255139 896 522.710283 896zM522.710283-52.235006C275.373047-52.235006 74.147021 148.981805 74.147021 396.311952S275.373047 844.859923 522.710283 844.859923c247.342299 0 448.567415-201.218837 448.567415-448.546958C971.276685 148.981805 770.049545-52.235006 522.710283-52.235006zM405.759853 623.84776c2.012985 13.95094-7.623966 26.851283-21.558195 28.915815-14.001069 2.000833-26.936452-7.590242-29.034405-21.507762-0.150794-0.982643-16.115327-99.935402-118.934148-237.375809-8.458954-11.304396-6.143266-27.335059 5.158598-35.79057 4.595829-3.429782 9.974997-5.093581 15.300593-5.093581 7.773747 0 15.468603 3.546144 20.493522 10.254913 8.942731 11.954158 17.212407 23.606727 24.972989 34.994166l0-220.345269c0-14.118849 11.451646-25.572115 25.570089-25.572115 14.116418 0 25.573127 11.450127 25.573127 25.572115L353.302024 483.1516C396.94665 566.699108 405.301395 620.699311 405.759853 623.84776zM745.396373 467.695814c14.117431 0 25.571102 11.452152 25.571102 25.572115 0 14.114899-11.450633 25.570089-25.571102 25.570089L558.811053 518.838018c3.597894 60.892073 1.020215 105.38617 0.711538 110.288549-0.879447 14.08553-12.621642 24.788775-27.139807 23.907303-14.081986-0.899701-24.785737-13.034022-23.904265-27.134642 0.078992-1.170908 2.676925-45.93216-1.080877-107.061109L421.491538 518.83812c-14.116418 0-25.570089-11.454177-25.570089-25.570089 0-14.118849 11.452658-25.572115 25.570089-25.572115l81.450883 0c-10.680459-93.92389-38.016632-205.509836-105.589929-262.680667-10.786693-9.122489-12.136853-25.267488-3.010921-36.037573 5.058338-5.977079 12.284609-9.058687 19.542172-9.058687 5.826487 0 11.702598 1.980578 16.497831 6.042906 81.528794 68.98027 112.731131 197.479365 124.142268 301.734122L745.396415 467.696017 745.396373 467.695814zM753.918116 322.798743c-14.11338 0-25.569077-11.456203-25.569077-25.575153l0-59.16254c0-12.001756-17.580734-26.069968-26.604482-26.069968l-50.958038 0c-6.677679 0-16.598091 2.148589-22.558156 8.189368-4.328673 4.398348-6.377104 10.756919-6.260742 19.444242 0.56368 40.985423 0.431115 179.493441 0.431115 185.370362-0.018229 14.116823-11.452658 25.553886-25.571102 25.553886l-0.018217 0c-14.133634-0.016204-25.573127-11.468356-25.554898-25.58528 0-1.449204 0.132565-144.017625-0.431115-184.63462-0.383619-28.353148 11.199681-46.128527 20.990464-56.053597 20.842708-21.142372 48.179894-23.423526 58.969625-23.423526l50.958038 0c35.215142 0 77.747699 34.442537 77.747699 77.21116l0 59.16254C779.492256 311.34254 768.035547 322.798743 753.918116 322.798743zM616.807045 585.908499l61.197206-26.451562c3.297318-1.433 6.742493-2.09694 10.120728-2.09694 9.891043 0 19.312487 5.759445 23.493302 15.431538 5.607942 12.950979-0.367415 27.998999-13.337129 33.610688l-61.199232 26.453587c-12.918167 5.643084-28.002139-0.367415-33.610081-13.334598C597.860961 606.568209 603.836318 591.518264 616.807045 585.908499z"  horiz-adv-x="1024" />

    
    <glyph glyph-name="nanzhuang" unicode="&#58894;" d="M998.940262 853.200179 54.312155 853.200179c-17.383629 0-31.48841-14.103245-31.48841-31.486157l0-293.874097c0-17.381888 14.104781-31.485133 31.48841-31.485133l115.455159 0 0-514.275833c0-17.381888 14.102733-31.487181 31.48841-31.487181L851.998717-49.408222c17.382605 0 31.48841 14.104269 31.48841 31.487181L883.487126 496.354927l115.453112 0c17.385677 0 31.48841 14.103245 31.48841 31.485133L1030.428648 821.71411C1030.427648 839.097037 1016.325939 853.200179 998.940262 853.200179zM683.491123 790.22592c-3.731149-22.262067-13.037466-52.64087-36.03927-76.829798-25.78944-27.140096-64.021709-40.895386-113.629491-40.895386-113.570202 0-147.681382 73.775309-158.012109 117.724262L683.491144 790.224998zM232.743117 13.564211l0 41.98216 587.768184 0 0-41.98216L232.743135 13.564211zM967.452877 559.32713 851.998717 559.32713c-17.385677 0-31.48841-14.104269-31.48841-31.487181l0-430.311513L232.743135 97.528436 232.743135 527.840012c0 17.382912-14.104781 31.487181-31.48841 31.487181L85.799554 559.327193 85.799554 790.225955l247.43125 0c10.804531-54.158438 51.024179-159.706419 200.591565-159.706419 61.560525 0 110.021222 18.141184 144.052634 53.953843 32.635597 34.313523 44.073574 76.932198 48.010342 105.752576L967.452853 790.225955 967.452853 559.327144z"  horiz-adv-x="1031" />

    
    <glyph glyph-name="xie" unicode="&#58895;" d="M815.91849 423.95392 709.571171 423.95392c-59.208909 0-103.897498 15.485645-132.79273 46.0416-41.952154 44.335718-38.909747 108.202394-38.823731 110.870118L537.95471 793.507698c0 18.546381-15.048294 33.595187-33.595494 33.595187L56.395692 827.102885c-18.5472 0-33.597542-15.048704-33.597542-33.595187l0-671.916153c0-1.924813 0.262963-3.761664 0.569958-5.598515-0.306995-1.837875-0.569958-3.67575-0.569958-5.599539l0-89.590458c0-12.159898 6.519706-22.70208 16.18729-28.606566 5.905715-9.667174 16.447283-16.186675 28.610765-16.186675l929.519384 0c18.549248 0 33.597542 15.04768 33.597542 33.596211L1030.71313 121.591545l0 79.529311C1030.713139 366.167859 891.664691 418.988851 815.91849 423.95392zM89.99424 759.910502l380.787838 0 0.045056-176.836506c-0.241459-3.762688-5.315277-92.564173 56.47657-158.552064 42.106675-44.970189 103.417549-67.76023 182.267494-67.76023l104.116429 0.065536c6.123725-0.393933 149.831475-11.591987 149.831475-155.70729l0-45.933145L89.994258 155.186803 89.994258 759.910509zM963.520102 43.20215 89.994258 43.20215l0 44.794206 873.524845 0L963.519102 43.202197zM380.754022 720.738304c-16.952832 0-30.690202-13.735834-30.690202-30.685901 0-16.973619 13.737472-30.686925 30.690202-30.686925 16.971162 0 30.688154 13.713306 30.688154 30.686925C411.442278 707.00247 397.72631 720.738304 380.754022 720.738304zM380.754022 619.469926c-16.952832 0-30.690202-13.71433-30.690202-30.686925 0-16.951091 13.737472-30.663373 30.690202-30.663373 16.971162 0 30.688154 13.712282 30.688154 30.663373C411.442278 605.755597 397.72631 619.469926 380.754022 619.469926zM380.754022 518.223974c-16.952832 0-30.690202-13.736858-30.690202-30.709453 0-16.928563 13.737472-30.665421 30.690202-30.665421 16.971162 0 30.688154 13.736858 30.688154 30.665421C411.442278 504.487117 397.72631 518.223974 380.754022 518.223974z"  horiz-adv-x="1031" />

    
    <glyph glyph-name="gouwurili" unicode="&#58896;" d="M146.2446 665.2529c0 0 3.2113 56.149 56.491 56.149 27.989 0 27.989 0 27.989 0l0-97.620992c0 0 0.683-42.837 42.24-42.923s84.053 0 84.053 0 42.496-0.939 42.496 42.837 0 97.707 0 97.707l225.024 0 0-98.731008c0 0-2.048-41.9738 42.752-41.8509s84.736 0 84.736 0 40.832 0.4649 40.96 42.3629 0 98.219 0 98.219l27.648 0c0 0 56.832 3.883 56.832-56.32s0-338.347 0-338.347l-85.248-83.2-83.456 82.688-197.12-195.328 112.64-112.128L202.87488 18.7669c0 0-56.5443 0.512-56.5443 56.32S146.2446 665.2529 146.2446 665.2529zM792.2196-65.7132 596.1226 131.4079 708.7626 243.5359 793.2426 160.0799 877.4666 243.5359 989.8506 131.4079ZM286.3626 777.5519l56.32 0 0-140.288-56.32 0 0 140.288ZM680.0906 777.5519l56.832 0 0-140.288-56.832 0 0 140.288Z"  horiz-adv-x="1024" />

    
    <glyph glyph-name="lvyouzhoubianfuwu" unicode="&#58908;" d="M1011.981964 341.313745C1013.275927 327.927273 1014.690909 314.587345 1014.690909 300.856436c0-261.706473-212.135564-473.814109-473.832727-473.814109-76.790691 0-149.085091 18.683345-213.234036 51.078982 115.898182 3.072 202.575127 18.357527 253.300364 30.040436 153.7024 15.490327 280.8832 119.426327 331.087127 259.947055-272.635345-335.201745-735.120291-86.537309-735.120291-86.537309L68.831418-37.789673 9.606982 391.396655l391.791709-68.682473L299.287273 229.492945c320.968145-182.383709 558.042764-32.246691 659.065018 57.427782 20.722036 27.675927 38.753745 52.233309 52.5312 71.251782 0.660945-5.436509 0.586473-11.068509 1.098473-16.551564 0.093091 0.121018 0.353745 0.418909 0.353745 0.418909C1012.214691 341.797818 1012.102982 341.583709 1011.981964 341.313745zM906.630982 448.768582 781.163055 448.768582c20.396218-96.889018 18.599564-189.263127 17.501091-216.045382-15.108655-5.371345-29.965964-9.876945-44.004073-12.995491l-20.368291-2.280727c7.642764 93.612218 0.809891 169.202036-13.628509 231.3216L591.229673 448.768582l0-234.384291c-33.773382 1.666327-61.775127 6.376727-84.833745 13.451636L506.395927 448.768582 354.592582 448.768582c-1.117091-4.794182-1.8432-10.230691-2.876509-15.183127l-60.0064 2.997527c0.781964 4.068073 1.526691 8.108218 2.364509 12.1856L174.927127 448.768582c-0.809891-2.029382-1.396364-4.189091-2.178327-6.227782l-82.618182 4.123927C151.6544 636.961164 330.072436 774.689164 540.858182 774.689164c224.162909 0 411.508364-155.834182 460.762764-364.934982-20.349673-36.063418-43.101091-65.349818-66.978909-89.646545C932.398545 365.405673 922.875345 408.739491 906.630982 448.768582zM205.954327 509.566255l104.084945 0c21.355055 66.7648 55.882473 129.210182 111.178473 166.930618C331.208145 647.862109 255.069091 588.134982 205.954327 509.566255zM506.395927 686.625164c-39.228509-25.274182-97.289309-77.377164-134.134691-177.058909l134.134691 0L506.395927 686.625164zM591.229673 509.566255l111.774255 0c-30.338327 82.050327-74.9568 131.695709-111.774255 160.842473L591.229673 509.566255zM650.091055 679.2896c57.6512-37.394618 93.249164-101.348073 115.144145-169.714036l110.415127 0C824.664436 591.030109 744.5504 652.041891 650.091055 679.2896z"  horiz-adv-x="1024" />

    
    <glyph glyph-name="sousuo2" unicode="&#58909;" d="M937.606863-30.057181 777.165754 132.827583c-9.048073 9.17394-20.10592 15.050788-31.732725 17.668405 42.530652 61.419861 67.505463 136.276756 67.505463 217.054501 0 208.642924-166.582993 377.759623-372.081297 377.759623-205.499327 0-372.110973-169.116699-372.110973-377.759623 0-208.642924 166.611645-377.815905 372.110973-377.815905 85.891206 0 164.979472 29.559223 227.952712 79.196737 2.867304-10.69355 8.419763-20.797675 16.695241-29.187763L845.946256-123.202605c25.324782-25.672706 66.3655-25.672706 91.660606 0C962.929598-97.47157 962.929598-55.788216 937.606863-30.057181zM439.459359 88.408931c-152.552441 0-276.202623 125.570927-276.202623 280.480043 0 154.852834 123.649158 280.423761 276.202623 280.423761s276.200576-125.570927 276.200576-280.423761C715.659935 213.979858 592.0118 88.408931 439.459359 88.408931z"  horiz-adv-x="1024" />

    
    <glyph glyph-name="31wode" unicode="&#58884;" d="M899.640668-1.714805c-7.238868 108.132766-60.680011 208.738092-146.610102 276.03173l-5.16565 3.568269-0.047072-0.069585c-4.88731 2.988054-10.458189 4.586458-16.192797 4.586458-19.701714 0-31.458479-9.498328-31.458479-25.411763 0-9.266038 4.285606-17.975397 11.477402-23.882943l-0.080841-0.13917 4.562922-3.266393c72.065316-51.518351 112.638383-129.652895 120.584356-232.273111l0.084934-1.119497c-0.071631-0.862647-0.116657-1.731434-0.116657-2.612501 0-17.340947 14.058181-31.400151 31.400151-31.400151 16.759709 0 30.449499 13.131065 31.350009 29.665647l0.624217 0L899.640668-1.714805zM798.515502 524.204206c0 156.107407-128.529305 283.119149-286.524712 283.119149s-286.525736-127.011742-286.525736-283.119149c0-84.110653 37.19104-162.570609 102.377692-216.660528-117.01711-62.452377-194.688097-181.588755-203.479321-313.118394l-0.36225-5.482875c-0.007163-0.113587-0.016373-0.226151-0.022513-0.340761l-0.032746-0.499373 0.019443 0c-0.008186-0.267083-0.019443-0.533143-0.019443-0.802272 0-14.702863 11.918447-26.622334 26.622334-26.622334 14.702863 0 26.622334 11.918447 26.622334 26.622334 0 0.26913-0.01228 0.535189-0.019443 0.802272l0.553609 0 0.417509 5.467525c9.647731 124.997875 88.871073 234.450706 202.112184 279.552927 33.809013-15.705704 85.420485-32.060183 131.714857-32.060183 42.889833 0 84.540442 9.451256 124.198673 28.307719l29.048593 16.863063 23.720238 15.566534C758.567675 356.003366 798.515502 437.080939 798.515502 524.204206zM511.989767 298.068885c-126.247332 0-228.949412 101.461833-228.949412 226.157833 0 124.673487 102.701057 226.111784 228.949412 226.111784 126.259612 0 228.972948-101.438297 228.972948-226.111784C740.961692 399.530718 638.249379 298.068885 511.989767 298.068885z"  horiz-adv-x="1024" />

    
    <glyph glyph-name="cubanshipinbofang" unicode="&#59381;" d="M512-120.977778C279.506489-120.977778 91.022222 67.483733 91.022222 300 91.022222 532.493511 279.506489 720.977778 512 720.977778 744.516267 720.977778 932.977778 532.493511 932.977778 300 932.977778 67.483733 744.516267-120.977778 512-120.977778zM512 652.711111C317.189689 652.711111 159.288889 494.787556 159.288889 300 159.288889 105.189689 317.189689-52.711111 512-52.711111S864.711111 105.189689 864.711111 300C864.711111 494.787556 706.810311 652.711111 512 652.711111zM684.032 261.156267l-221.297778-146.090667c-15.291733-10.080711-33.655467-11.104711-50.016711-2.707911C396.356267 120.708978 386.844444 135.977956 386.844444 153.909333L386.844444 446.090667c0 17.931378 9.511822 33.200356 25.873067 41.551644 16.361244 8.3968 34.724978 7.395556 50.016711-2.707911l221.297778-146.090667c13.7216-9.056711 21.208178-22.778311 21.208178-38.843733C705.217422 283.911822 697.730844 270.212978 684.032 261.156267z"  horiz-adv-x="1024" />

    
    <glyph glyph-name="huabian14" unicode="&#58914;" d="M5151.081 708.667c-259.027-26.52-471.191-157.052-681.216-289.568h-520.125c14.27 55.043 24.503 126.426-16.322 173.29-34.63 32.662-77.508 51.005-128.48 44.862-38.753-6.091-71.4-28.54-104.046-48.901-32.662 22.449-69.365 48.901-114.208 48.901-50.97 4.072-93.831-18.343-126.511-59.114-28.523-42.808-22.431-112.156-1.985-159.038-2.053-2.071-524.266 2.002-524.266 2.002l-50.97 28.539c-157.019 99.957-320.197 187.611-497.644 236.58-138.693 40.791-312.103 32.611-420.22-73.436-159.071 63.238-360.986 124.423-534.397 51.022-81.563-42.843-146.873-122.37-155.033-210.076l-6.091-6.075c-40.824 2.002-108.101 24.449-136.641-26.538-157.086 0-279.457 0-428.365 0-61.186 0-77.508-59.114-118.333-91.727-22.431-14.304-40.739-2.053-61.168 6.11-61.186 44.846-118.263 112.156-191.717 130.498-40.824 12.233-87.741 2.002-118.333-30.608-26.468-30.54-36.7-73.386-22.431-114.157 10.215-26.52 34.7-48.951 63.238-48.951 22.431 0 42.878 6.11 59.2 22.448 12.199 18.342 12.199 44.862 0 63.204-14.338 14.27-30.678 20.362-51.040 20.362-10.215 4.072 0 12.251 0 18.376 12.285 14.27 28.54 14.27 46.915 14.27 110.155-22.431 167.232-165.162 289.689-138.659 63.153 6.11 55.077 77.475 114.208 87.672h397.703l4.107-46.882c38.753-97.885 150.893-154.983 189.665-250.85 18.376 26.52 32.647 61.186 53.023 85.653 18.376 14.304 30.592 38.753 48.969 53.023 38.771 38.753 75.456 77.508 89.724 128.513 12.285 16.289 0 28.539 22.482 30.559 28.539-4.038 169.304 0 203.933 0-2.053-93.796 83.618-148.856 138.693-216.134 22.431-28.574 40.824-59.167 61.186-85.688l4.107 2.053c36.701 116.246 169.304 175.36 187.611 299.766 51.023 0 97.955 0 146.855-2.019 116.261-79.528 228.487-177.413 373.288-169.27 53.023 2.036 104.046 40.791 122.353 89.725 12.285 24.449 4.122 63.204 20.446 81.563h116.194c73.47-50.97 161.193-106.048 238.719-142.748 106.048-53.023 252.903-67.293 348.736 18.342 18.376 14.269 26.555 36.718 40.807 50.988 55.093-59.114 110.155-120.3 177.464-159.071 69.347 36.718 126.493 101.976 175.395 159.071l6.159 2.036c24.502-34.682 59.134-73.401 97.885-89.725 195.841-73.386 373.27 61.186 526.234 161.090 42.808 0 83.65 0 128.497 0 4.107-36.718 6.11-85.634 34.716-114.175 30.576-46.915 83.617-57.113 132.568-61.186 132.533 18.343 238.632 101.959 342.626 175.36l150.98-2.019c-4.107-20.412 4.038-40.791 14.27-59.134 55.077-85.671 136.641-144.801 173.341-238.598h6.142c24.433 40.791 53.041 83.633 87.689 116.247 34.681 48.917 85.652 87.689 99.922 142.733 8.196 12.251 2.070 28.574 10.231 40.791 50.97 0 216.218 0 216.218-4.038 12.199-22.464 14.269-48.969 30.576-67.328 55.112-73.401 128.497-136.606 165.249-220.222l6.11-2.071c36.7 73.436 101.993 134.587 159.071 197.842 26.538 28.54 30.576 61.186 34.681 95.832 124.441 0 405.9 0 407.935 0 44.88-6.091 44.88-44.862 77.526-69.33 103.96-59.114 177.448 42.808 254.938 91.743 30.608 20.396 73.386 42.843 110.171 20.396 4.038-4.072 12.199-14.253 4.038-18.343-22.431-2.053-44.881-10.179-55.112-30.576-12.199-18.342-4.038-44.862 10.231-57.113 20.378-22.431 55.112-24.466 79.562-14.269 40.773 20.362 42.808 65.257 40.773 103.995-6.11 38.752-38.771 73.385-73.419 85.634-44.845 16.322-91.762-6.091-128.53-26.52-67.311-30.541-112.156-120.267-189.682-116.194-46.915 26.52-53.005 91.726-118.299 91.726h-432.368c-26.468 26.538-71.418 38.737-103.995 32.612-20.446 0-34.682-16.272-53.005-10.179-8.196 69.33-38.771 132.551-93.831 177.413-171.372 132.551-414.113 67.293-593.561-8.178-81.614 71.365-181.57 104.013-291.707 95.867zM2097.688 421.1c-36.7 42.809-104.063 36.718-142.817 24.467 0 32.647 10.215 61.186 30.593 85.688 61.168-24.502 136.692-71.418 193.77-110.155-22.431 0-53.005-2.002-81.546 0zM2517.824 580.17c97.955-38.753 183.623-91.762 277.472-144.801l16.254-14.27c-63.17 0-522.145 0-522.145 0-81.563 53.041-173.41 108.067-254.956 157.035v6.125c138.693 120.317 336.518 52.99 483.375-4.089zM1500.021 421.1c-20.363 32.612-65.241 40.791-83.618 40.791-20.362 0-44.862-8.178-59.133 8.178 6.11 34.665 24.433 57.096 46.915 85.634 18.308 14.27 36.701 36.701 61.186 46.915 142.748 67.293 322.249 20.363 456.836-36.736-6.11-26.468-24.433-50.97-30.592-75.404l-12.216-42.827c-40.824 8.163-106.048 20.343-134.57-26.538-97.955-2.019-146.855-0.018-244.809-0.018zM1340.965 357.912l20.362-20.412c2.071-20.362 16.322-46.882-4.038-65.24-10.231-18.376-26.556-22.465-46.915-24.485-22.431-2.019-40.807 12.251-55.077 24.485-8.178 16.306-12.285 40.791-4.122 59.134 4.122 12.251 14.338 24.503 26.555 26.52 18.376 10.179 42.792 10.179 63.237 0zM1954.872 357.912c18.376-14.27 30.593-36.7 26.538-61.186-2.053-20.412-16.322-42.844-36.701-50.97-16.322-8.163-40.807-8.163-55.077 0-20.446 10.197-36.77 32.612-36.77 55.043-1.984 22.431 10.231 40.791 26.555 55.093 22.431 18.342 50.97 10.163 75.456 2.019zM2674.894 266.119c-77.508-53.023-165.231 2.053-230.471 38.752-22.448 18.343-53.041 38.771-73.47 55.059h332.481c6.177-32.611-6.11-71.365-28.54-93.815zM3411.254 255.954c-104.046-53.041-220.325 2.002-312.086 48.917l-81.563 55.059h434.405c0-34.648-10.162-81.563-40.757-103.977zM4070.039 235.524c-42.809 6.143-91.778 18.342-108.101 63.238-4.038 16.289-10.146 46.882-10.146 61.15 36.7 0 432.402 0 432.402 0-87.757-63.188-199.878-122.319-314.156-124.39zM4743.146 260.027c-30.608 20.395-46.915 67.293-42.808 99.906 57.079 0 281.441 0 334.448 0-77.439-59.134-183.538-140.695-291.64-99.906zM5536.62 347.715c14.269-16.322 20.377-42.844 14.269-63.238-4.107-18.342-22.431-32.611-38.737-38.72-24.502-8.163-44.948 2.019-63.256 14.27-14.269 16.272-24.502 34.665-22.431 57.096 1.968 20.362 20.377 34.665 34.613 46.882 24.503 8.178 57.165 8.178 75.54-16.289zM6142.38 355.894c14.27-12.251 20.343-34.665 20.343-55.093-4.038-20.363-16.306-36.7-36.701-46.915-16.306-8.128-32.647-6.091-50.97-2.019-20.412 14.269-36.7 36.718-36.7 59.134 4.038 18.376 8.092 36.718 24.433 48.935 20.481 16.322 61.22 18.342 79.597-4.038zM3741.683 357.912c-18.376-12.251-42.792-12.251-65.291-6.11-18.307 8.143-36.7 26.486-44.862 46.882-6.091 22.431-2.053 44.862 4.122 65.241 10.146 22.464 34.63 26.555 53.023 36.718 26.468 4.089 46.915-6.091 63.237-18.343 20.363-16.306 26.486-40.807 26.486-63.188-4.072-22.464-14.287-46.934-36.718-61.202zM4588.111 421.1c173.41 110.155 363.056 212.096 577.222 230.453 79.562 4.072 153.015-18.343 206.054-69.347v-4.072l-252.903-157.036h-530.375zM5236.734 421.1c48.986 42.809 120.402 81.579 179.517 110.155 20.377-8.178 20.377-36.718 32.647-55.093l4.038-26.52c-40.807 12.251-89.725 0-124.406-28.54h-91.794zM5754.841 635.231c114.192 4.072 232.525-20.363 289.672-124.406 8.163-18.342 18.307-38.752 16.306-59.114-40.807 16.272-130.533 14.269-150.944-30.608-89.725 0-146.872-2.002-240.703 0-28.54 34.682-93.831 40.791-134.57 24.466l-4.107 2.071c-12.233 38.752-26.504 79.51-46.915 116.228 81.58 40.773 177.413 63.187 271.261 71.365z"  horiz-adv-x="11067" />

    
    <glyph glyph-name="sousuo" unicode="&#58954;" d="M689.979042 701.702805C553.099558 838.581266 331.17412 838.581266 194.29566 701.701782c-136.87846-136.87846-136.87846-358.801852 0-495.681336 124.758422-124.757398 320.154647-135.782499 457.426057-33.120328l203.079208-203.078185c8.243755-8.243755 21.732977-8.243755 29.976732 0l41.400922 41.400922c8.244778 8.244778 8.244778 21.731954 0 29.976732L723.100394 244.278795C825.761542 381.548158 814.737464 576.944384 689.979042 701.702805zM640.41009 255.589398c-109.502973-109.502973-287.042505-109.502973-396.546501 0.001023-109.502973 109.50195-109.502973 287.041482 0 396.544455 109.502973 109.502973 287.044552 109.503996 396.547525 0.001023S749.914086 365.091348 640.41009 255.589398z"  horiz-adv-x="1024" />

    
    <glyph glyph-name="huafeichongzhi" unicode="&#58904;" d="M827.20338 766.770753c0 37.0795-37.923728 84.104513-87.301322 84.104513L316.449767 850.875267c-58.413388 0-89.032756-52.842509-89.032756-84.4596l0-733.201961c0-41.052998 44.627407-82.660628 85.835947-82.660628l427.715385 0c80.905658 0 86.258573 85.300758 86.258573 85.300758S828.134589 603.269959 827.20338 766.770753L827.20338 766.770753zM527.510764-16.097374c-20.714787 0-37.523615 16.784268-37.523615 37.523615 0 20.714787 16.808828 37.521568 37.523615 37.521568s37.522592-16.806781 37.522592-37.521568C565.033355 0.686894 548.225551-16.097374 527.510764-16.097374L527.510764-16.097374zM763.791142 78.41928 291.227316 78.41928 291.227316 754.914728l472.564849 0L763.791142 78.41928 763.791142 78.41928zM689.079556 577.248306l-32.304753 31.195489L530.574542 477.646843 398.244678 614.79341l-32.304753-31.194466L475.377406 470.186941l-92.718705 0 0-32.770358L502.198262 437.416584l0-63.634296-119.540583-0.13303 0-31.749098L502.198262 341.90016l0-123.802654 50.621934 0L552.820196 341.899136l119.540583-0.022513-0.044002 31.773657L552.820196 373.650281 552.820196 437.41556l119.496581 0 0 32.769334L585.792145 470.184895 689.079556 577.248306z"  horiz-adv-x="1024" />

    
    <glyph glyph-name="gouwu" unicode="&#59013;" d="M719.644758 680.59989c-36.259376 0-65.655209-29.520009-65.655209-65.926138 0-32.556675 23.548275-59.435123 54.445508-64.785977l0-87.758527c0-77.824452-89.214772-141.142895-198.907287-141.142895-107.829875 0-198.907287 63.453908-198.907287 138.557778L310.620483 549.887774c30.931099 5.350854 54.456796 32.229302 54.456796 64.785977 0 36.406129-29.373255 65.926138-65.655209 65.926138-36.236799 0-65.655209-29.520009-65.655209-65.926138 0-26.06566 15.217198-48.394753 37.072164-59.096461l0-96.044449c0-98.415081 107.096108-178.508566 238.688744-178.508566s238.688744 81.222357 238.688744 181.082394l0 93.448043c21.877544 10.69042 37.072164 33.030801 37.072164 59.096461C785.299967 651.079881 755.904134 680.59989 719.644758 680.59989zM127.156168 798.025179c0.609591 13.998016 12.474038 25.35447 26.472054 25.35447l711.821673 0c14.009304 0 25.862463-11.435476 26.472054-25.35447l35.875559-828.050358c0.609591-13.998016-10.125984-25.35447-24.462661-25.35447L115.754558-55.379649c-14.110903 0-25.060964 11.435476-24.462661 25.35447L127.156168 798.025179zM909.656532 863.319149 109.410297 863.319149c-10.645265 0-19.608511-8.624584-20.071348-19.292426L49.557491-75.123625c0-11.04037 9.109999-20.195524 20.093926-20.195524l879.80915 0c5.429875 0 10.724286 2.314188 14.460853 6.253952 3.759145 3.939764 5.847558 9.347062 5.610495 14.776937l-39.781457 917.434461C929.750458 854.175284 920.651747 863.319149 909.656532 863.319149z"  horiz-adv-x="1024" />

    
    <glyph glyph-name="weixiu" unicode="&#58926;" d="M968.018 86.017c9.33-5.345 13.67-14.35 13.015-27.005-0.655-12.66-6.315-23.65-16.985-32.98l-98-98.01c-20-19.995-39.995-19.995-59.99 0L418.046 316.031c-48.012-19.995-99.015-24.33-153.002-13.01-53.987 11.32-100.992 36.99-141.012 77.01-42.667 42.67-69.335 93.342-80 152.022-10.667 58.682-2.66 113.352 24.02 164.012l187.99-184.022 128 128L200.022 824.065C250.679 848.07 305.349 855.41 364.032 846.08c58.68-9.33 109.355-35.327 152.017-77.995 39.995-39.992 65.67-86.997 77.02-141.012 11.345-54.017 7.01-105.017-13.02-153.002L968.018 86.017z"  horiz-adv-x="1024" />

    
    <glyph glyph-name="520jiashouhouwangdian24px" unicode="&#58886;" d="M512-42.666667c-4.266667 0-298.666667 277.333333-298.666667 512s132.266667 341.333333 298.666667 341.333333 298.666667-106.666667 298.666667-341.333333S516.266667-42.666667 512-42.666667zM512 768c-140.8 0-256-98.133333-256-320 0-200.533333 251.733333-426.666667 256-426.666667 4.266667 0 256 226.133333 256 426.666667C768 674.133333 652.8 768 512 768zM512 384c-72.533333 0-128 55.466667-128 128s55.466667 128 128 128 128-55.466667 128-128S584.533333 384 512 384zM512 597.333333c-46.933333 0-85.333333-38.4-85.333333-85.333333s38.4-85.333333 85.333333-85.333333 85.333333 38.4 85.333333 85.333333S558.933333 597.333333 512 597.333333z"  horiz-adv-x="1024" />

    
    <glyph glyph-name="man150yuanbaoyou24px" unicode="&#58887;" d="M896 405.333333l0-426.666667 0-42.666667L128-64l0 42.666667 0 426.666667L85.333333 405.333333l0 42.666667 0 128 0 42.666667 162.133333 0C192 665.6 174.933333 733.866667 196.266667 776.533333c29.866667 51.2 119.466667 55.466667 200.533333 8.533333 72.533333-42.666667 106.666667-115.2 98.133333-166.4l34.133333 0c-8.533333 51.2 29.866667 119.466667 98.133333 166.4 76.8 46.933333 166.4 46.933333 192-8.533333 25.6-42.666667 0-106.666667-55.466667-157.866667l170.666667 0 0-42.666667 0-128 0-42.666667L896 405.333333zM379.733333 746.666667C315.733333 780.8 251.733333 785.066667 234.666667 755.2s12.8-93.866667 72.533333-128c4.266667-4.266667 12.8-4.266667 17.066667-8.533333l128 0C469.333333 648.533333 439.466667 712.533333 379.733333 746.666667zM469.333333 576 469.333333 576 315.733333 576 128 576l0-128 341.333333 0L469.333333 576zM469.333333 405.333333 170.666667 405.333333l0-426.666667 298.666667 0L469.333333 405.333333zM554.666667-21.333333l298.666667 0 0 426.666667-298.666667 0L554.666667-21.333333zM789.333333 755.2c-17.066667 29.866667-76.8 29.866667-136.533333-8.533333-59.733333-38.4-93.866667-93.866667-76.8-123.733333 0 0 0 0 0 0l115.2 0c8.533333 4.266667 12.8 8.533333 21.333333 8.533333C772.266667 665.6 806.4 721.066667 789.333333 755.2zM896 576l-187.733333 0-145.066667 0L554.666667 576l0-128 341.333333 0L896 576z"  horiz-adv-x="1024" />

    
    <glyph glyph-name="zixun-copy" unicode="&#58880;" d="M516.065-81.741c-12.141 0-23.475 5.67-32.020 16l-97.574 104.925h-164.705c-106.051 0-192.325 86.275-192.325 192.325v427.365c0 106.049 86.275 192.325 192.325 192.325h582.636c106.044 0 192.32-86.276 192.32-192.325v-427.365c0-106.051-86.276-192.325-192.32-192.325h-156.186l-98.345-105.505c-2.465-2.63-15.41-15.42-33.805-15.42v0zM221.765 805.015c-80.585 0-146.14-65.56-146.14-146.14v-427.365c0-80.58 65.555-146.14 146.14-146.14h184.824l110.641-118.975 110.895 118.975h176.275c80.575 0 146.134 65.56 146.134 146.14v427.365c0 80.585-65.559 146.14-146.134 146.14h-582.636zM227.155 445.189c0-15.88 6.534-31.665 17.765-42.894 11.235-11.231 27.014-17.77 42.899-17.77 15.881 0 31.666 6.54 42.895 17.77 11.231 11.229 17.77 27.014 17.77 42.894 0 15.885-6.54 31.67-17.77 42.9-11.229 11.229-27.014 17.77-42.895 17.77-15.885 0-31.665-6.541-42.899-17.77-11.231-11.231-17.765-27.016-17.765-42.9v0zM450.835 445.189c0-15.88 6.54-31.665 17.77-42.894 11.229-11.231 27.014-17.77 42.894-17.77 15.881 0 31.666 6.54 42.895 17.77 11.231 11.229 17.77 27.014 17.77 42.894 0 15.885-6.54 31.67-17.77 42.9-11.229 11.229-27.014 17.77-42.895 17.77-15.88 0-31.665-6.541-42.894-17.77-11.231-11.231-17.77-27.016-17.77-42.9v0zM682.93 445.189c0-15.88 6.54-31.665 17.77-42.894 11.229-11.231 27.014-17.77 42.895-17.77 15.88 0 31.665 6.54 42.894 17.77 11.231 11.229 17.77 27.014 17.77 42.894 0 15.885-6.54 31.67-17.77 42.9-11.229 11.229-27.014 17.77-42.894 17.77-15.881 0-31.666-6.541-42.895-17.77-11.231-11.231-17.77-27.016-17.77-42.9v0zM682.93 445.189z"  horiz-adv-x="1024" />

    
    <glyph glyph-name="fenxiang" unicode="&#58916;" d="M729.747004 126.401325 401.247804 308.841984C410.861357 331.779584 416.210251 356.957937 416.210251 383.389184 416.210251 417.795584 407.102675 450.009419 391.296934 477.958596L666.60608 644.235364C693.085515 610.889106 733.900951 589.44534 779.800245 589.44534 859.624056 589.44534 924.364951 654.186235 924.364951 734.010046 924.364951 813.833858 859.624056 878.574752 779.800245 878.574752 699.976433 878.574752 635.235539 813.833858 635.235539 734.010046 635.235539 717.361012 638.199115 701.410705 643.379351 686.52054L362.432181 516.750125C327.351147 553.324996 278.10277 576.166219 223.45731 576.166219 117.009498 576.166219 30.704369 489.86109 30.704369 383.413278 30.704369 276.965466 117.009498 190.660337 223.45731 190.660337 286.198393 190.660337 341.807616 220.802078 377.009122 267.231443L710.086204 82.212713C707.098534 70.647537 705.339663 58.576384 705.339663 46.071537 705.339663-33.752275 770.080557-98.493169 849.904369-98.493169 929.728181-98.493169 994.469075-33.752275 994.469075 46.071537 994.469075 125.895349 929.728181 190.636243 849.904369 190.636243 799.812698 190.636243 755.672275 165.120572 729.747004 126.401325ZM874.851864 732.593681C874.851864 679.369775 831.699299 636.217211 778.475394 636.217211 725.251488 636.217211 682.098923 679.369775 682.098923 732.593681 682.098923 785.817586 725.251488 828.970151 778.475394 828.970151 831.699299 828.970151 874.851864 785.817586 874.851864 732.593681ZM223.457311 238.824478C143.633499 238.824478 78.892605 303.565372 78.892605 383.389184 78.892605 463.212996 143.633499 527.95389 223.457311 527.95389 303.281122 527.95389 368.022016 463.212996 368.022016 383.389184 368.022016 303.565372 303.281122 238.824478 223.457311 238.824478L223.457311 238.824478ZM849.904369-50.304934C796.680463-50.304934 753.527898-7.152369 753.527898 46.071537 753.527898 99.295443 796.680463 142.448008 849.904369 142.448008 903.128275 142.448008 946.28084 99.295443 946.28084 46.071537 946.28084-7.152369 903.128275-50.304934 849.904369-50.304934L849.904369-50.304934Z"  horiz-adv-x="1024" />

    
    <glyph glyph-name="laba" unicode="&#58902;" d="M553.168402-7.837657c0-25.297335-21.623199-45.776131-45.896594-45.776131-12.648668 0-24.152932 5.059467-31.922828 13.913534l-240.806541 239.782601L45.896594 200.082348C21.623199 200.14258 0 220.380448 0 245.978942l0 276.463737c0 25.478031 21.623199 46.017058 45.896594 46.017058l188.645844 0L474.023881 808.001412C482.998412 816.915711 494.442445 821.975178 505.946709 821.975178c25.538262 0 45.776131-21.502735 45.776131-45.896594l0-783.976472L553.168402-7.837657 553.168402-7.837657 553.168402-7.837657zM717.601082 215.320981c-5.059467-2.710429-12.829363-2.710429-17.88883-2.710429-25.417799 0-45.896594 20.478795-45.896594 46.137521 0 53.425563 82.818658 39.331333 82.818658 126.004823 0 86.733722-82.818658 71.495089-82.818658 126.305982 0 26.742897 20.478795 45.896594 45.896594 45.896594 5.179931 0 12.829363 0 17.88883-2.529734 67.580025-27.947532 110.946885-98.117522 110.946885-170.757014C828.547968 310.969002 785.181107 242.003647 717.601082 215.320981L717.601082 215.320981 717.601082 215.320981zM790.240574 44.383272c-6.324334-1.204635-12.708899-2.469502-17.828598-2.469502-26.682666 0-47.101229 20.237868-47.101229 45.896594 0 20.478795 11.323569 33.067231 27.947532 41.861067 19.153697 10.239398 38.307394 19.153697 54.810893 31.98306 71.314393 52.220928 113.356156 135.039586 113.356156 221.893771 0 86.613258-42.041762 170.757014-113.356156 222.917711-16.443268 12.769131-34.452562 21.803894-53.606258 31.98306-17.828598 7.769896-29.152168 21.68343-29.152168 42.041762 0 25.357567 21.562967 45.896594 45.836363 45.896594 6.324334 0 12.708899-1.204635 19.093465-2.529734 134.919122-57.340627 223.098406-192.319981 223.098406-339.044527C1013.278748 238.269278 925.159696 101.904594 790.240574 44.383272L790.240574 44.383272 790.240574 44.383272zM862.819834-123.844009c-6.324334-2.469502-12.889595-3.674137-19.033233-3.674137-25.478031 0-45.896594 20.237868-45.896594 45.715899 0 20.418564 11.444033 31.802365 27.947532 42.041762 10.118934 5.059467 21.743662 8.974531 31.862596 15.419328 20.358332 11.383801 40.897359 22.827834 59.990824 36.922063 118.415623 86.613258 187.260514 224.122346 187.260514 372.111758 0 147.929181-70.109758 284.233633-187.260514 371.027587-19.153697 13.973766-38.427857 25.478031-58.786189 36.982295-11.444033 5.059467-22.888065 8.974531-33.187695 13.973766-16.623963 10.299629-27.947532 23.068761-27.947532 43.306629C797.829775 875.460973 819.392742 896 843.726369 896c6.143639 0 12.588436-1.264867 19.033233-3.854832 202.559379-86.733722 335.189695-286.88383 335.189695-507.332039C1198.069761 164.244456 1065.499676-37.230751 862.819834-123.844009L862.819834-123.844009 862.819834-123.844009zM862.819834-123.844009"  horiz-adv-x="1199" />

    
    <glyph glyph-name="tianmao" unicode="&#59140;" d="M1024.384-2.47296V-128h-99.9936c8.3968 15.68768 12.7744 32.83968 12.7744 51.44576 0 60.2112-47.80544 110.20288-107.2896 113.12128-2.56 1.1008-4.38272 1.4592-6.20032 1.4592-2.56 0-3.65056-0.3584-6.21056-1.4592-59.47904-2.9184-106.92608-52.91008-106.92608-113.12128 0-18.60608 4.01408-35.75808 12.40576-51.44576H301.07136c8.3968 15.68768 12.7744 32.83968 12.7744 51.44576 0 60.2112-47.44192 110.20288-107.2896 113.12128-1.82784 1.1008-3.28704 1.4592-5.8368 1.4592-1.82784 0-3.65056-0.3584-6.20544-1.4592-59.48928-2.9184-107.29472-52.91008-107.29472-113.12128 0-18.60608 4.74624-35.75808 12.40576-51.44576H0v203.9808c0 1.82784 0 2.9184 0.36352 3.28192 1.09568 43.42784 8.02816 111.29856 44.16 131.7376 41.6 23.71584 79.9232-19.34336 87.58272-28.4672 54.37952-60.93312 112.768-137.5744 219.33056-137.5744h321.51552c106.19392 0 164.95104 76.64128 218.96192 137.5744 7.296 8.3968 46.70976 52.9152 87.58272 28.4672 36.49536-20.80256 43.42272-87.94624 44.5184-131.7376v-81.73568h0.36864z m-479.8976-64.5888c6.21056 7.65952 1.46432 14.592-11.3152 14.592H491.2128c-12.04224 0-17.51552-6.93248-11.6736-14.592l12.03712-16.78336c4.74624-6.9376 9.856-14.2336 13.87008-18.97472 1.09568-1.1008 1.82272-2.56 6.56896-2.56 4.74112 0 5.8368 1.4592 6.93248 2.56 3.28192 4.736 8.3968 12.03712 13.87008 18.97472l11.6736 16.78336z m-343.40352 103.6288h5.47328c17.51552-8.7552 31.02208-56.18688 31.02208-113.4848 0-18.60608-1.46432-35.75808-4.38272-51.08224h-65.6896c-2.55488 15.68768-4.01408 32.47616-4.01408 51.08224 0 57.2928 13.50656 104.7296 31.02208 113.4848h6.56896z m622.592 0h6.1952c17.152-8.7552 30.65856-56.56064 30.65856-113.4848 0-18.60608-1.4592-35.39456-4.0192-51.08224h-65.6896c-2.55488 15.68768-3.64544 32.47616-3.64544 51.08224 0 57.2928 12.7744 104.7296 30.28992 113.4848h6.20544z"  horiz-adv-x="1024" />

    
    <glyph glyph-name="cebianlanzhankai" unicode="&#58906;" d="M109.526509 685.836443l804.946982 0c18.021445 0 32.633235 14.611789 32.633235 32.633235s-14.611789 32.633235-32.633235 32.633235L109.526509 751.102912c-18.026562 0-32.633235-14.611789-32.633235-32.633235S91.499947 685.836443 109.526509 685.836443zM914.473491 98.442312 109.526509 98.442312c-18.026562 0-32.633235-14.611789-32.633235-32.633235 0-18.021445 14.606673-32.633235 32.633235-32.633235l804.946982 0c18.021445 0 32.633235 14.611789 32.633235 32.633235C947.106726 83.831546 932.494936 98.442312 914.473491 98.442312zM914.473491 424.772612 109.526509 424.772612c-18.026562 0-32.633235-14.611789-32.633235-32.633235s14.606673-32.633235 32.633235-32.633235l804.946982 0c18.021445 0 32.633235 14.611789 32.633235 32.633235S932.494936 424.772612 914.473491 424.772612z"  horiz-adv-x="1024" />

    
    <glyph glyph-name="xihuan" unicode="&#59439;" d="M496 492.8c0 0 0 3.2 0 6.4 0 4.8-1.6 11.2-3.2 17.6-4.8 17.6-14.4 36.8-28.8 54.4-11.2 14.4-25.6 25.6-41.6 36.8-80 49.6-198.4-8-198.4-113.6 0-81.6 54.4-166.4 147.2-246.4 32-28.8 67.2-54.4 102.4-76.8 12.8-8 24-14.4 33.6-20.8 1.6-1.6 3.2-1.6 4.8-3.2 1.6 1.6 3.2 1.6 4.8 3.2 9.6 6.4 20.8 12.8 33.6 20.8 35.2 22.4 70.4 48 102.4 76.8 91.2 80 147.2 163.2 147.2 246.4 0 108.8-94.4 161.6-185.6 113.6-20.8-11.2-36.8-24-49.6-38.4-16-17.6-27.2-35.2-32-52.8-3.2-11.2-4.8-19.2-4.8-22.4C528 472 496 472 496 492.8zM528 492.8l-32 0C496 472 528 472 528 492.8zM520 142.4c-1.6 1.6-4.8 1.6-8 4.8-3.2-1.6-6.4-3.2-8-4.8L520 142.4zM512 832c-248 0-448-200-448-448s200-448 448-448 448 200 448 448S760 832 512 832zM675.2 222.4c-33.6-28.8-70.4-56-105.6-80-12.8-8-24-16-35.2-22.4-6.4-3.2-11.2-6.4-12.8-8-4.8-3.2-11.2-3.2-14.4 0-3.2 1.6-6.4 3.2-12.8 8-11.2 6.4-22.4 12.8-35.2 22.4-36.8 24-72 49.6-105.6 80-97.6 84.8-156.8 176-156.8 270.4 0 131.2 147.2 204.8 246.4 140.8 20.8-12.8 36.8-27.2 49.6-43.2 9.6-12.8 17.6-25.6 24-40 6.4 14.4 16 27.2 28.8 40 16 16 35.2 32 57.6 43.2 110.4 59.2 232-8 232-142.4C832 398.4 772.8 308.8 675.2 222.4z"  horiz-adv-x="1024" />

    
    <glyph glyph-name="15tianwuyouhuanhuo" unicode="&#58937;" d="M910.25 515.063c-47.063-12.187-93.75-24.375-141.563-36.75 35.813 67.687 71.25 134.438 106.5 201 120.563-139.313 157.5-383.438 14.813-576-149.25-201.563-426-247.875-631.5-114-210.562 137.25-273.563 410.25-152.625 622.875 126.375 221.813 377.438 278.813 560.813 212.438-5.063-16.875-10.313-33.75-15.188-50.063-16.688 4.313-32.625 9.188-48.937 12.75-44.25 9.938-89.063 12-134.25 6.937-77.625-8.812-147.563-36.75-208.875-85.125-83.812-66-136.5-151.688-153.563-257.063-21.75-134.438 13.875-253.125 106.125-353.25 64.125-69.75 144.188-112.313 237.938-126 133.5-19.688 251.063 16.688 349.875 108.75 68.25 63.75 109.125 142.875 124.313 235.312 6.75 40.688 6.75 81.188 0.188 121.875-3.938 24.375-8.438 48.562-12.75 72.938-0.563 0.75-0.938 1.688-1.313 3.375zM502.062 383.062c8.625 66.938 17.25 133.125 25.875 199.688 63.375 0 126.75 0 190.5 0 0-17.063 0-34.5 0-52.125-48.188 0-96.188 0-145.125 0-4.688-33-9.188-65.625-13.875-98.813 6.563 0.375 12.563 0.938 18.375 1.125 33.188 1.5 64.875-4.125 93.375-21.937 33.375-20.813 51.375-51.563 55.313-90.562 3.563-36-3.937-69.187-25.313-98.813-22.5-31.125-53.438-49.125-90.75-55.875-41.813-7.688-82.5-2.625-121.688 14.25-3.375 1.5-6.563 3.375-10.312 5.25 4.687 16.125 9.562 32.063 14.062 47.813 11.438-4.313 22.125-9.188 33.375-12.563 24.562-7.313 49.5-10.5 75-3.563 37.875 10.688 62.625 44.438 61.313 83.813-0.75 25.875-9.188 48-30.563 63.938-15.188 11.25-32.625 16.688-51 19.125-24.563 3.375-49.313 2.438-73.875-0.563-1.125 0-2.625 0-4.687-0.188zM346.437 168.562c-20.625 0-40.688 0-61.5 0 0 118.687 0 237 0 356.625-24.188-13.313-47.438-26.063-71.25-39.188-1.125 3.938-2.25 7.313-3.375 10.875-3.375 10.687-6.375 21.375-9.938 32.063-0.938 2.813-0.563 4.313 2.25 5.812 29.25 15.563 58.5 31.313 87.75 46.875 1.313 0.75 3 1.313 4.5 1.313 17.063 0.187 34.125 0 51.563 0 0-138 0-276 0-414.375z"  horiz-adv-x="1024" />

    
    <glyph glyph-name="sousuo1" unicode="&#58955;" d="M1015.07072-51.39456L716.6976 247.9104c118.83008 156.9536 111.83616 386.59072-31.27296 529.69984-156.41088 156.41088-410.00448 156.41088-566.41536 0-156.41088-156.37504-156.41088-409.96864 0-566.37952 143.05792-143.05792 372.52608-150.25152 529.46432-31.616l298.43456-299.33568a24.64768 24.64768 0 0 1 34.82624 0l33.33632 33.46432a24.63744 24.63744 0 0 1 0 34.86208zM184.16128 274.21696c-119.8592 119.8592-119.8592 314.1888 0 434.01216 119.86432 119.8592 314.14784 119.8592 434.01216 0 119.86432-119.82336 119.86432-314.14784 0-434.01216s-314.14784-119.86432-434.01216 0z"  horiz-adv-x="1024" />

    
    <glyph glyph-name="sousuo3" unicode="&#59010;" d="M390.095238 164.571429a365.714286 365.714286 0 1 1 0 731.428571 365.714286 365.714286 0 0 1 0-731.428571z m0 97.523809a268.190476 268.190476 0 1 0 0 536.380952 268.190476 268.190476 0 0 0 0-536.380952z m491.812572-341.333333A48.761905 48.761905 0 0 1 950.857143-10.288762L755.809524 213.333333a48.761905 48.761905 0 0 1-68.949334-68.949333l195.04762-223.622095z"  horiz-adv-x="1024" />

    
    <glyph glyph-name="444" unicode="&#58968;" d="M890.434783 183.652174h-712.347826v89.043478h89.043478l-133.565218 133.565218-133.565217-133.565218h89.043478v-311.652174c0-48.973913 40.069565-89.043478 89.043479-89.043478h712.347826c48.973913 0 89.043478 40.069565 89.043478 89.043478v311.652174h-89.043478v-89.043478z m0-222.608696h-712.347826v133.565218h712.347826v-133.565218zM178.086957 806.956522h712.347826v-311.652174h-89.043479l133.565218-133.565218 133.565217 133.565218h-89.043478v311.652174c0 48.973913-40.069565 89.043478-89.043478 89.043478h-712.347826c-48.973913 0-89.043478-40.069565-89.043479-89.043478v-311.652174h89.043479v311.652174z"  horiz-adv-x="1068" />

    
    <glyph glyph-name="banquan" unicode="&#58899;" d="M678.61318 482.17088l-33.552164-21.125133c-28.999474 38.523385-68.765153 57.784054-119.296013 57.784054-39.764656 0-73.113181-12.737092-100.033297-38.2123-26.930349-25.475208-40.387849-57.066717-40.387849-94.754061 0-37.697577 13.251815-70.007447 39.765679-96.928586 26.503631-26.930349 60.054771-40.386826 100.655468-40.386826 48.463782 0 88.22946 19.260669 119.296013 57.783031l33.552164-22.367427c-16.572444-24.02723-38.83447-42.463114-66.793242-55.29742s-58.095139-19.261693-90.403986-19.261693c-50.949392 0-93.50972 16.776082-127.684054 50.328245s-51.260477 74.346265-51.260477 122.402771c0 48.872081 17.290805 90.609671 51.881624 125.199467 34.580586 34.58161 79.006402 51.881624 133.275399 51.881624 31.891338 0 61.404512-6.835685 88.539522-20.503986C643.29479 525.043317 664.108838 506.189923 678.61318 482.17088zM510.5423 703.715649c-176.401616 0-319.40354-143.002948-319.40354-319.404564 0-176.403662 143.001925-319.40354 319.40354-319.40354 176.404686 0 319.404564 142.999878 319.404564 319.40354C829.946864 560.712701 686.946986 703.715649 510.5423 703.715649zM510.543324 113.547335c-149.539828 0-270.764773 121.223922-270.764773 270.76375 0 149.537781 121.224945 270.764773 270.764773 270.764773 149.538805 0 270.76375-121.226992 270.76375-270.764773C781.307074 234.771257 660.082128 113.547335 510.543324 113.547335z"  horiz-adv-x="1024" />

    
    <glyph glyph-name="xihuan1" unicode="&#58993;" d="M511.8194-68.402116C263.675485-68.402116 62.126279 133.508289 62.126279 381.652205 62.126279 629.79612 263.675485 831.706526 511.8194 831.706526s450.054321-201.910406 450.054321-450.054321c0-248.143915-201.910406-450.054321-450.054321-450.054321m0 863.988712c-228.277954 0-413.934392-185.656437-413.934391-413.934391 0-228.277954 185.656437-413.934392 413.934391-413.934392 228.277954 0 413.934392 185.656437 413.934392 413.934392 0 228.277954-185.656437 413.934392-413.934392 413.934391M512.541799-13.499824l-10.47478 10.835979c-41.537919 43.705115-92.10582 85.243034-140.867724 125.336155-116.306173 95.356614-226.110758 185.295238-226.110759 306.658201 0 128.586949 74.768254 218.525573 181.322046 218.525574 67.905467 0 136.894533-36.842328 196.131217-103.664198 59.236684 67.183069 128.22575 103.664198 196.131217 103.664198 106.914991 0 181.322046-89.938624 181.322046-218.525574 0-122.085362-110.888183-212.746384-227.916755-308.825396-48.039506-39.370723-97.885009-80.186243-139.061729-123.16896l-10.474779-10.835979zM316.771781 618.960141c-89.938624 0-152.787302-78.019048-152.787301-189.62963 0-107.63739 104.747795-193.241623 215.635979-284.263844 45.511111-37.564727 92.828219-75.851852 133.282539-117.028572 40.093122 40.093122 86.326631 78.019048 131.115344 114.861376 111.971781 91.383422 217.441975 178.071252 217.441975 286.43104 0 111.610582-62.848677 189.62963-152.787301 189.62963-63.209877 0-128.948148-37.564727-184.934039-106.192592l-11.197178-13.725574-11.197178 13.725574c-55.624691 68.627866-121.362963 106.192593-184.57284 106.192592"  horiz-adv-x="1024" />

    
    <glyph glyph-name="kefu" unicode="&#58903;" d="M511.99 753.534c-162.106 0-293.503-131.387-293.503-293.493 0-162.116 131.397-293.534 293.503-293.534 162.147 0 293.544 131.418 293.544 293.534-0.010 162.106-131.397 293.493-293.544 293.493zM817.32 235.462c-74.208-88.318-185.371-144.535-309.764-144.535-122.519 0-232.044 54.619-306.252 140.603-110.651-84.632-185.996-212.967-199.481-359.448 56.544 0.727 984.505-0.082 1020.365-0.082-13.711 148.825-91.329 278.922-204.868 363.462zM174.056 367.975c-0.154 56.339-0.256 145.692-0.205 216.736 36.72 165.639 203.506 255.34 336.5 248.264 146.665 0.676 293.513-104.333 339.644-247.957 0.061-73.051 0.225-172.561 0-217.053 67.245 13.783 119.294 77.106 119.294 148.436 0 57.077-32.604 106.135-80.004 130.68-61.705 146.767-209.394 248.899-378.934 248.899-172.070 0-326.291-103.258-384.668-254.653-42.239-27.146-70.972-75.549-70.972-128.448 0.010-71.883 51.322-131.704 119.345-144.903z"  horiz-adv-x="1024" />

    
    <glyph glyph-name="xunhuan" unicode="&#59050;" d="M829.671 565.863c-48.578 48.578-113.165 75.331-181.863 75.331h-269.919v51.632c0 16.49-11.334 22.662-25.186 13.716l-124.263-80.255c-13.852-8.945-13.717-23.371 0.301-32.055l123.662-76.61c14.018-8.684 25.486-2.298 25.486 14.192v51.379h269.918c109.836 0 199.193-89.358 199.193-199.193 0-18.161-2.438-36.146-7.246-53.454-4.287-15.432 4.747-31.417 20.179-35.704 2.597-0.722 5.209-1.066 7.779-1.066 12.701 0 24.359 8.41 27.925 21.245 6.213 22.363 9.363 45.571 9.363 68.979 0.001 68.699-26.752 133.286-75.329 181.863zM781.787 173.768l-123.662 76.61c-14.018 8.684-25.486 2.298-25.486-14.192v-51.379h-291.445c-109.835 0-199.193 89.357-199.193 199.193 0 38.488 10.988 75.828 31.775 107.982 8.696 13.45 4.841 31.403-8.608 40.098-13.451 8.697-31.403 4.841-40.099-8.609-26.867-41.557-41.068-89.785-41.068-139.471 0-68.698 26.753-133.285 75.33-181.863 48.578-48.577 113.165-75.33 181.863-75.33h291.444v-51.632c0-16.49 11.334-22.662 25.186-13.716l124.264 80.254c13.851 8.945 13.717 23.371-0.301 32.055z"  horiz-adv-x="1024" />

    
    <glyph glyph-name="arrow-left" unicode="&#58905;" d="M256.293 391.451l459.642-447.973 52.012 50.732-407.574 397.211 407.542 397.21-51.975 50.733z"  horiz-adv-x="1024" />

    
    <glyph glyph-name="shouji" unicode="&#58952;" d="M702.7 835.055H321.283c-57.463 0-104.022-46.591-104.022-104.018v-693.455c0-57.427 46.56-104.019 104.022-104.019H702.7c57.463 0 104.023 46.592 104.023 104.02V731.036c0 57.426-46.56 104.018-104.024 104.018zM477.316 800.382h69.35c9.582 0 17.336-7.754 17.336-17.336 0-9.582-7.754-17.336-17.337-17.336h-69.349c-9.581 0-17.336 7.754-17.336 17.336 0 9.582 7.755 17.336 17.336 17.336z m34.675-824.46c-24.482 0-44.324 19.842-44.324 44.323 0 24.48 19.843 44.323 44.324 44.323 24.482 0 44.325-19.843 44.325-44.323 0-24.482-19.843-44.322-44.325-44.322z m225.381 148.341c0-9.582-7.753-17.335-17.336-17.335h-416.09c-9.583 0-17.338 7.753-17.338 17.335V713.7c0 9.582 7.755 17.336 17.338 17.336h416.09c9.583 0 17.336-7.755 17.336-17.336v-589.437z"  horiz-adv-x="1024" />

    
    <glyph glyph-name="travel" unicode="&#58910;" d="M606.031 689.978c278.685-114.315 278.685-329.516 278.685-329.516-139.335 168.112-371.584 141.22-371.584 141.22-13.273-262.272 278.696-564.907 278.696-564.907h-185.216c-24.543 120.532-86.473 217.135-166.175 259.344-35.653 160.16-20.205 305.563-20.205 305.563-179.998-70.617-232.25-235.373-232.25-235.373-40.647 247.148 185.801 329.534 185.801 329.534-150.955 35.306-232.25-141.239-232.25-141.239-29.032 270.688 232.25 235.373 232.25 235.373l46.449 141.246 92.9-94.156c212.332 147.936 325.135-47.091 325.135-47.091-99.53 47.092-232.236 0.001-232.236 0.001zM350.564 172.152c94.536 0 173.483-99.579 199.308-235.377h-398.628c25.825 135.798 104.772 235.377 199.32 235.377z"  horiz-adv-x="1024" />

    
    <glyph glyph-name="pingguo" unicode="&#58901;" d="M883.662 545.309c-158.916-102.917-139.96-325.553 27.818-401.851-7.398-18.606-14.24-37.612-22.399-56.035-26.344-59.459-61.573-113.405-105.185-161.483-49.261-54.3-100.764-64.23-168.598-36.828-24.366 9.841-49.704 18.432-75.405 23.514-35.076 6.935-69.497-0.185-102.48-13.738-13.837-5.685-27.631-11.51-41.662-16.675-47.611-17.527-90.52-9.632-128.346 24.475-41.58 37.493-73.54 82.739-100.984 130.837-57.852 101.392-90.009 210.179-84.289 327.85 4.311 88.702 33.872 167.038 105.398 224.257 50.262 40.209 108.026 60.443 172.751 51.365 25.099-3.52 49.262-13.952 73.728-21.63 9.499-2.98 18.821-6.672 27.935-10.695 26.84-11.844 53.003-10.788 80.41-0.253 33.215 12.766 66.791 25.771 101.353 33.634 87.671 19.95 192.604-23.417 239.955-96.744zM698.312 891.256c14.433-112.556-88.634-241.69-202.002-233.157C468.846 751.354 591.141 893.035 698.312 891.256z"  horiz-adv-x="1024" />

    
    <glyph glyph-name="xiaoxi" unicode="&#59008;" d="M767.286 86.166H256.713c-70.387 0-127.643 57.257-127.643 127.643V554.19c0 70.387 57.257 127.643 127.643 127.643h510.573c70.387 0 127.643-57.257 127.643-127.643V213.81c0.001-70.386-57.256-127.643-127.643-127.643zM256.713 639.287c-46.92 0-85.095-38.164-85.095-85.096V213.81c0-46.931 38.174-85.096 85.095-85.096h510.573c46.92 0 85.096 38.164 85.096 85.096V554.19c0 46.931-38.174 85.096-85.096 85.096H256.713zM512.01 259.016a21.239 21.239 0 0 0-15.685 6.898l-325.04 354.073c-7.947 8.643-7.365 22.104 1.288 30.04 8.664 7.979 22.126 7.355 30.062-1.287l325.04-354.074c7.947-8.642 7.365-22.104-1.288-30.04a21.159 21.159 0 0 0-14.377-5.61zM511.99 259.016a21.155 21.155 0 0 0-14.377 5.61c-8.653 7.936-9.234 21.399-1.288 30.041l325.04 354.074c7.947 8.642 21.398 9.266 30.062 1.288 8.653-7.936 9.234-21.398 1.288-30.041l-325.04-354.074a21.237 21.237 0 0 0-15.685-6.898zM186.95 112.467a21.158 21.158 0 0 0-14.377 5.609c-8.653 7.936-9.234 21.399-1.288 30.042l229.786 250.321c7.935 8.643 21.398 9.266 30.061 1.288 8.653-7.936 9.235-21.398 1.289-30.041L202.635 119.365a21.237 21.237 0 0 0-15.685-6.898zM837.05 112.467a21.239 21.239 0 0 0-15.685 6.897l-229.713 250.24c-7.947 8.642-7.365 22.104 1.288 30.04 8.674 7.978 22.116 7.355 30.062-1.288l229.713-250.238c7.947-8.643 7.365-22.106-1.288-30.042a21.157 21.157 0 0 0-14.377-5.61z"  horiz-adv-x="1024" />

    
    <glyph glyph-name="gonggao" unicode="&#58917;" d="M882.248085 126.920524h0.06568v0.385571l-0.06568-0.385571M750.134825 721.225851c-4.941871 3.046859-9.852118 5.537864-15.848531 5.537864-14.637086 0-26.431653-12.194733-26.431653-27.22712 0-10.851926 6.251838-19.542468 15.083472-24.479474 97.152835-58.297782 162.488192-166.500802 162.488192-290.51343 0-123.910459-65.272109-232.075772-162.304529-290.377204-8.508095-4.793481-15.844882-13.774721-15.844882-24.888154 0-15.051848 11.861464-27.25023 26.468142-27.25023 5.871133 0 10.521089 2.329235 15.623513 5.346903 112.744724 67.677972 188.576845 193.26694 188.576845 337.171118 0 143.583071-75.512231 268.915397-187.810569 336.679727m30.670496-336.693107c0 84.38157-44.476841 158.007303-110.642939 197.634713-2.993341 1.60553-10.040647 4.765506-14.98495 4.765506-14.702766 0-26.592206-12.22879-26.592206-27.324425 0-10.147682 5.227704-19.184872 13.199406-23.92362 51.138576-29.868947 85.646533-86.349561 85.646534-151.152174 0-65.925268-35.709672-123.276761-88.321202-152.746758-7.660326-4.794698-12.723829-13.516863-12.723828-23.413985 0-15.121177 11.890656-27.382808 26.556933-27.382808 6.253054-0.03284 13.681065 3.740156 13.681065 3.740156 68.110979 39.083719 114.181188 113.873461 114.181187 199.803395M542.142009 793.113476c-11.12438 5.509888-24.359059 4.005312-34.087113-3.916522-0.442737-0.372191-47.633168-38.95479-99.731414-78.39732-90.624894-68.67778-117.024922-80.1184-122.382772-81.944083H172.427277c-0.659241 0-1.278343-0.059599-1.929069-0.093656h-57.982758c-14.60911 0-26.45233-12.186219-26.45233-27.202793v-434.441935c0-15.046982 11.816461-27.1809 26.45233-27.1809l194.471087-0.03284c5.225272-1.967991 30.164511-13.803913 110.578475-81.24957 46.812158-39.219946 88.771236-77.547119 89.213973-77.902281 5.998845-5.514754 13.647009-8.367003 21.364502-8.367003 4.468726 0 8.962995 0.980347 13.204271 2.919146 11.571982 5.343254 19.001209 17.148768 19.001209 30.204649 0 0 0.03284 102.628666 0.032841 139.510863 0.829524 2.624799 1.244286 5.411367 1.244286 8.296456 0 2.953203-1.279559 609.959249-1.279559 609.959249 0.002433 12.722612-7.077713 24.301892-18.204526 29.83854M508.214232 158.076328c0-1.582421-0.479227-99.854261-0.479226-99.854261-14.24665 12.40029-30.096397 26.003511-46.421723 39.584839-107.328492 89.383041-133.92313 96.886463-151.906287 96.886462-0.380705 0-0.701811-0.093656-1.04846-0.093655-0.355163 0-0.668971 0.093656-1.053325 0.093655H161.461017c-18.511036 0-22.830156 5.412584-22.830155 24.532992V552.639076c0 12.999931 1.496062 21.171108 16.721842 21.171108h131.41753c17.535555 0 44.44765 7.378142 161.912877 95.852599 20.92298 15.736631 41.388628 31.594892 59.050678 45.499758 0 0 0.389219-469.807391 0.479227-550.172701-0.535177-2.229498 0.001216-4.561166 0.001216-6.913512m0 0z"  horiz-adv-x="1024" />

    
    <glyph glyph-name="gouwu1" unicode="&#58948;" d="M890.02 538.399c0 61.624-50.135 111.77-111.77 111.77h-68.26v23.06c0 113.367-92.231 205.599-205.598 205.599s-205.599-92.232-205.599-205.6v-23.06h-68.24c-61.624 0-111.759-50.135-111.749-110.95L97.096-9.288c0-61.624 50.135-111.759 111.77-111.759h591.083c61.624 0 111.76 50.135 111.739 112.568L890.02 538.4z m-550.267 134.82c0 90.787 73.85 164.638 164.639 164.638S669.03 764.007 669.03 673.22v-23.06H339.753v23.06z m460.196-753.316H208.865c-39.035 0-70.81 31.764-70.82 69.99l21.71 548.506c0 39.035 31.764 70.81 70.799 70.81H778.24c39.035 0 70.81-31.765 70.83-71.62l21.668-546.887a70.86 70.86 0 0 0-70.79-70.8zM504.392 194.058c-96.369 0-174.766 78.398-174.766 174.766h-40.96c0-118.948 96.778-215.726 215.726-215.726 118.958 0 215.726 96.778 215.726 215.726h-40.96c0-96.368-78.398-174.766-174.766-174.766z"  horiz-adv-x="1024" />

    
    <glyph glyph-name="lvyouyaoyue" unicode="&#58911;" d="M214.182818 271.340647l260.98427-49.095189s2.201578 0 6.702013-4.500435c22.297377-13.398906 46.796332-17.796942 73.594144-17.796942 40.196718 0 73.594144 13.398906 89.194628 22.297377l265.479586 51.296767 138.289817-316.776353v-4.500435L881.138069 28.158438l-2.201578-2.201578 2.201578 2.201578-13.398906-31.195848 13.398906 31.195848h-2.201578c-17.796942 8.898471-37.897861 13.398906-57.99366 13.398906-31.195848 0-53.498345-11.197328-60.195238-15.600484l-171.789643-98.195498-2.099179-0.701433-2.600934-1.198068c-4.797392-3.097569-15.400806-7.101369-24.299277-7.101369-11.197328 0-20.100919 6.702013-20.100919 6.702013l-2.201578 2.201578-187.385006 113.790862c-17.796942 17.796942-40.196718 26.797812-64.695673 26.797812-28.99939 0-53.498345-13.398906-66.897251-24.498955l-138.289817-62.494095 133.794502 290.08094m-11.197328 46.893611c-8.898471 0-20.100919-6.702013-24.498955-15.600484L33.499825-11.941001S2.303977-78.838252 42.398296-78.838252c6.702013 0 17.796942 2.201578 31.195848 8.898471 0 0 126.493455 56.595914 168.886631 75.596044 0.199678 0.102399 0.501755 0.199678 0.701433 0.302077 4.500435 4.500435 22.297377 17.796942 42.398296 17.796942 11.197328 0 22.297377-4.500435 33.499825-15.600484l4.500435-4.500435 189.586584-115.99244s20.100919-15.600484 46.796332-15.600484c13.398906 0 31.195848 4.500435 49.095189 15.600484l171.789643 98.195498s15.600484 8.898471 37.897861 8.898471c11.197328 0 24.498955-2.201578 40.196718-8.898471h2.201578l169.588064-75.893001s13.398906-6.702013 28.99939-6.702013c17.796942 0 37.897861 11.197328 28.99939 62.494095-0.302077 1.802222-1.500145 4.899791-2.201578 6.702013l-144.99183 330.175259c-4.500435 8.898471-13.398906 15.600484-24.498955 15.600484h-4.500435l-283.281648-53.498345c-2.201578 0-4.500435-2.201578-6.702013-2.201578-8.898471-4.500435-37.897861-17.796942-71.392566-17.796942-15.600484 0-33.499825 4.500435-51.296767 13.398906-6.702013 4.500435-13.398906 6.702013-22.297377 8.898471l-269.882741 51.296767c-0.199678-0.097279-2.401256-0.097279-4.700113-0.097279z m658.154059-330.175259z m2.201578 0z m0 0z m0 0zM767.444486 895.99488c-178.486535 0-325.674823-147.188288-325.674824-330.175258 0-182.889691 325.674823-466.268617 325.674824-466.268618s325.674823 283.281647 325.674823 466.268618S945.833742 895.99488 767.444486 895.99488z m-163.285408-300.479555c-6.702013 13.398906-6.297537 26.096379-6.297537 39.495285a99.941401 99.941401 0 0 0 100.391956 100.391956c26.797812 0 51.296767-11.197328 69.196109-26.797812 17.796942 17.796942 44.594754 26.797812 69.196108 26.797812a99.941401 99.941401 0 0 0 100.391956-100.391956c0-15.600484-2.201578-28.99939-8.898471-42.398296 0-2.201578-2.201578-2.201578-2.201578-4.500435v-2.201578c-24.498955-53.498345-136.088239-144.99183-149.487146-153.890301l-8.898471-8.898471-17.796942 15.600484c-20.100919 15.600484-115.99244 95.891521-142.790252 149.487145m229.578505 113.698703c-22.297377 0-44.594754-11.197328-55.797202-28.99939l-13.398906-17.796942-13.398906 17.796942c-13.398906 17.796942-33.499825 28.99939-55.797203 28.99939-37.897861 0-69.196108-31.195848-69.196108-69.196108 0-8.898471 1.100789-17.796942 5.601224-28.99939l1.100789-2.201578c17.796942-37.897861 91.493485-102.593534 131.592925-138.289817 42.398296 35.696283 113.790862 100.391956 131.592924 136.088239l2.201578 2.201578c4.500435 11.197328 6.702013 20.100919 6.702013 28.99939-2.01214 40.201838-33.305267 71.397686-71.203128 71.397686zM219.384686 490.925011c-4.500435 8.898471-5.201868 19.199808-5.201868 28.098279 0 35.696283 28.99939 64.695673 64.695673 64.695673 17.796942 0 33.499825-6.702013 44.594754-17.796942 11.197328 11.197328 28.99939 17.796942 44.594754 17.796942 8.898471 0 15.600484-2.201578 24.498955-4.500435 0 31.195848 6.702013 62.494095 15.600484 91.493485-24.498955 11.197328-53.498345 17.796942-82.492615 17.796942-115.99244 0-209.687503-95.891521-209.687503-214.182818 0-118.194018 209.687503-301.180988 209.687503-301.180988s100.391956 86.99305 162.886051 180.688113c-31.195848 35.696283-55.797202 75.893001-73.594144 113.790862-26.797812-33.499825-78.094579-78.094579-84.796592-82.492615l-6.702013-4.500435-11.197328 8.898471c-13.398906 11.197328-75.893001 62.494095-91.493485 95.891521m17.904461 9.00087c11.197328-24.498955 57.99366-66.897251 84.796592-89.194628 26.797812 22.297377 69.196108 60.195238 82.492615 84.796592-8.898471 22.297377-13.398906 42.398296-13.398906 62.494095-6.702013 4.500435-15.600484 6.702013-24.498955 6.702013-15.600484 0-28.99939-6.702013-35.696283-17.796942L323.478365 530.220618l-8.898471 11.197328c-8.898471 11.197328-22.297377 17.796942-35.696283 17.796942-24.498955 0-44.594754-20.100919-44.594754-44.594754 0-6.702013 0.99839-10.900371 3.297247-17.499985"  horiz-adv-x="1116" />

    
    <glyph glyph-name="dianhuaqia" unicode="&#59260;" d="M891.010103 588.752314c-0.010233 0.375553-0.026606 0.74906-0.056282 1.12359-0.025583 0.315178-0.061398 0.626263-0.101307 0.937349a19.97289 19.97289 0 0 1-0.607844 2.974751 20.301372 20.301372 0 0 1-4.333702 7.92346c-0.122797 0.13917-0.230244 0.287549-0.357133 0.424672L627.106598 879.820506a20.652366 20.652366 0 0 1-1.612731 1.547239c-3.737114 4.926196-9.636474 8.121981-16.297174 8.121981H139.2863c-39.530318 0-71.690786-35.205826-71.690786-78.479399V-43.009304c0-43.273573 32.160467-78.478376 71.690786-78.478375h680.059623c39.531342 0 71.691809 35.204803 71.691809 78.478375V588.194612c0 0.188288-0.023536 0.370437-0.027629 0.557702z m-71.66418-669.308769H139.2863c-16.672728 0-30.758538 17.194614-30.758538 37.546128V811.010327c0 20.352537 14.08581 37.547151 30.758538 37.547151h460.999442l249.819742-268.413216V-43.009304c0-20.352537-14.08581-37.547151-30.759561-37.547151zM724.732056 390.567579h-490.828818c-27.571962 0-50.002834-22.430872-50.002834-50.002834V19.412374c0-27.570939 22.430872-50.001811 50.002834-50.00181h490.828818c27.570939 0 50.001811 22.430872 50.00181 50.00181V340.564745c0 27.570939-22.430872 50.002834-50.00181 50.002834z m9.069563-371.155205c0-5.001921-4.068665-9.069563-9.069563-9.069562h-490.828818c-5.001921 0-9.070586 4.068665-9.070587 9.069562V340.564745c0 5.001921 4.069689 9.070586 9.070587 9.070586h490.828818c5.001921 0 9.069563-4.069689 9.069563-9.070586V19.412374zM667.300019 241.899608h-71.626318v62.417585c0 11.30344-9.162684 20.466124-20.466124 20.466124s-20.466124-9.162684-20.466124-20.466124v-62.417585H274.370905c-11.30344 0-20.466124-9.162684-20.466124-20.466124s9.162684-20.466124 20.466124-20.466124h392.930137c11.30344 0 20.466124 9.162684 20.466124 20.466124s-9.163707 20.466124-20.467147 20.466124zM667.300019 152.867876h-392.929114c-11.30344 0-20.466124-9.162684-20.466124-20.466124s9.162684-20.466124 20.466124-20.466124h71.62734v-62.417585c0-11.30344 9.162684-20.466124 20.466124-20.466124s20.466124 9.162684 20.466124 20.466124v62.417585h280.370549c11.30344 0 20.466124 9.162684 20.466124 20.466124s-9.163707 20.466124-20.467147 20.466124z"  horiz-adv-x="1024" />

    
    <glyph glyph-name="tian" unicode="&#59122;" d="M982.843648 582.582801l-0.215918-0.599658-0.086981 0.599658-80.838119-167.667697 85.753059 9.867741c6.173606-71.435982-3.91517-143.882991-30.385031-212.489532-23.178909-60.098773-57.437154-113.847931-101.803617-159.759587-42.866297-44.352137-93.325525-79.57536-149.980873-104.683201-56.655348-25.113981-116.640534-38.842657-178.285522-40.814567-63.820538-2.040473-126.649492 8.679683-186.744172 31.859615-60.098773 23.186072-113.847931 57.437154-159.759587 101.81078-44.351114 42.866297-79.57536 93.325525-104.689341 149.978826-25.107841 56.655348-38.842657 116.63644-40.814567 178.286546-2.035356 63.815421 8.685823 126.647445 31.864731 186.742125 23.186072 60.09468 57.437154 113.848954 101.810781 159.76061 42.860157 44.351114 93.325525 79.57536 149.980873 104.683201 56.648185 25.113981 116.634394 38.841633 178.285522 40.813545 63.815421 2.041496 126.647445-8.67866 186.742125-31.864732 54.629201-21.073968 104.19713-51.426253 147.328463-90.214675l22.705118 25.243941c-46.214555 41.564651-99.310843 74.088392-157.811212 96.652294C631.538537 885.619582 564.234665 897.096984 495.850182 894.909156 429.809069 892.798075 365.56079 878.097258 304.887942 851.200678 244.217141 824.311261 190.171224 786.585031 144.253428 739.069855 96.704482 689.873386 60.005652 632.297063 35.178197 567.935196c-24.827455-64.355727-36.303834-131.666762-34.117028-200.050222 2.106987-66.041112 16.813944-130.289392 43.7095-190.96224 26.89044-60.670801 64.614623-114.716718 112.130824-160.634513 49.195445-47.548946 106.773815-84.241636 171.135682-109.075231 64.354704-24.827455 131.664715-36.309974 200.044082-34.122146 66.041112 2.113127 130.293485 16.818037 190.966333 43.714618 60.672848 26.89044 114.718765 64.614623 160.63656 112.1298 47.541783 49.195445 84.240613 106.773815 109.068068 171.135682 47.883567 124.120902 45.788859 259.96787-5.90857 382.511857z m0 0M504.97091 158.371216c11.434423 131.644249 63.653739 257.590729 156.698878 377.801579v66.543555H335.38656v-75.130117h227.54032c-85.860507-115.917056-137.37988-239.011582-154.554029-369.213993h96.598059v-0.001024z m0 0"  horiz-adv-x="1024" />

    
    <glyph glyph-name="jiantou" unicode="&#59090;" d="M678.898 824.874c8.449 0 16.903-3.224 23.35-9.67 12.897-12.9 12.897-33.805 0-46.704l-384.502-384.501 384.502-384.502c12.897-12.896 12.897-33.805 0-46.7-12.893-12.895-33.803-12.895-46.703 0l-407.853 407.853c-12.895 12.895-12.895 33.805 0 46.7l407.853 407.854c6.45 6.446 14.903 9.67 23.353 9.67z"  horiz-adv-x="1024" />

    
    <glyph glyph-name="jiantou-copy" unicode="&#58915;" d="M321.118 830.388l-64.032-63.397 380.993-383.606-384.196-380.377 63.49-63.925 448.221 443.779z"  horiz-adv-x="1024" />

    
    <glyph glyph-name="icon_shipinbofang" unicode="&#59228;" d="M1092.608 896H136.192A136.328533 136.328533 0 0 1 0 759.466667v-750.933334c0-75.537067 60.996267-136.533333 136.192-136.533333h956.416A136.328533 136.328533 0 0 1 1228.8 8.533333V759.466667c0 75.537067-60.996267 136.533333-136.192 136.533333z m-257.024-560.196267l-305.8688-196.676266c-47.479467-30.5152-85.981867-9.045333-85.981867 46.865066V596.104533c0 56.4224 38.2976 77.5168 85.981867 46.865067l305.8688-196.642133c47.5136-30.5152 47.7184-79.872 0-110.523734z"  horiz-adv-x="1228" />

    
    <glyph glyph-name="shipinxiangqingbofangyuan" unicode="&#58897;" d="M511.926888-127.853735c-282.729896 0-511.926868 229.196972-511.926867 511.926867s229.196972 511.926868 511.926867 511.926868 511.926868-229.196972 511.926868-511.926868-229.196972-511.926868-511.926868-511.926867z m-129.239594 749.343922v-472.157463l408.897929 236.071418-408.897929 236.086045z"  horiz-adv-x="1024" />

    
    <glyph glyph-name="hongxin" unicode="&#58912;" d="M501.76 588.8c0 0 63.488 81.92 163.84 81.92s143.36-108.544 143.36-172.032c0-155.648-307.2-401.408-307.2-401.408s-307.2 245.76-307.2 401.408c0 55.296 59.392 172.032 143.36 172.032s163.84-81.92 163.84-81.92z"  horiz-adv-x="1024" />

    
    <glyph glyph-name="xuangoushouji" unicode="&#58881;" d="M392.533 234.667h-72.533v405.333h264.533c0 0 0-8.533 0-8.533h21.333l0 68.267c0 12.8-4.267 21.333-17.067 21.333l-273.067 0c-12.8 0-17.067-8.533-17.067-21.333v-537.6c0-12.8 4.267-21.333 17.067-21.333h76.8l-0 93.867zM725.333 593.067h-273.067c-12.8 0-17.067-12.8-17.067-21.333v-537.6c0-12.8 4.267-21.333 17.067-21.333l273.067-0c12.8 0 17.067 12.8 17.067 21.333l-0 537.6c0 8.533-8.533 21.333-17.067 21.333zM618.667 38.4h-64c-12.8 0-21.333 8.533-21.333 21.333s8.533 21.333 21.333 21.333h64c12.8 0 21.333-8.533 21.333-21.333s-8.533-21.333-21.333-21.333zM721.067 102.4h-264.533l-0 409.6h264.533l0-409.6z"  horiz-adv-x="1024" />

    
    <glyph glyph-name="liwu-copy" unicode="&#58882;" d="M1099.918 530.072c0 46.065-37.783 83.515-84.448 83.515h-65.627c27.442 26.435 44.53 63.356 44.53 104.343 0.001 80.647-66.156 146.071-147.736 146.071-83.051 0-137.194-81.514-169.837-158.417-17.49 7.61-38.918 12.347-62.352 12.347-23.368 0-44.795-4.671-62.353-12.347-32.648 76.903-86.791 158.417-169.837 158.417-69.162 0-126.777-47.199-142.862-110.622 13.416-2.736 27.035-6.341 40.853-10.747 11.148 45.799 52.674 80.048 102.345 80.048 60.748 0 106.012-71.77 134.851-142.735-4.605-6.407-7.009-13.284-7.809-20.562 2.268 0.403 4.406 0.804 6.276 1.405-2.74-0.871-4.543-2.006-6.61-3.203-0.067-0.804-0.403-1.472-0.403-2.338 0-13.421 7.681-25.634 19.961-35.785-0.2-0.067-0.266-0.198-0.464-0.264-27.438-8.547-80.647-7.344-178.113 45.932-216.832 118.627-312.499 4.604-313.571 3.402-7.344-8.944-5.938-22.094 3.072-29.307 9.015-7.212 22.298-5.938 29.709 3.072 0.8 1.003 74.036 88.256 260.294-13.619 67.023-36.719 123.971-55.075 169.903-55.075 9.279 0 18.025 1.065 26.367 2.471 0.668-1.405 1.605-2.873 2.272-4.208h65.022v-166.964h-422.186v125.24c0 23.098 18.892 41.724 42.261 41.724h140.126c-14.287 6.612-28.905 13.752-43.996 22.029-14.083 7.68-27.769 14.153-41.123 19.762h-55.007c-46.665 0-84.453-37.451-84.453-83.515v-166.964h63.356v-375.653c0-46.135 37.787-83.521 84.452-83.521h675.467c46.665 0 84.453 37.385 84.453 83.521v375.45h63.554l-0.337 167.101zM593.417-54.275h-316.638c-23.302 0-42.192 18.626-42.192 41.724v375.66h358.83v-417.384zM719.993 655.245c0 8.812-3.070 17.155-8.542 24.698 28.838 70.965 74.036 142.735 134.851 142.735 58.216 0 105.548-46.803 105.548-104.347 0-57.478-47.332-104.341-105.548-104.341h-153.081c16.492 11.011 26.771 25.431 26.771 41.255v0zM614.448 634.414c-8.481 0-16.625 0.601-24.101 1.604-2.002 3.607-4.737 6.81-8.745 8.745-6.606 3.27-13.883 2.338-19.83-1.069-6.672 3.342-10.615 7.279-10.615 11.551 0 11.546 28.375 20.892 63.291 20.892 34.981 0 63.356-9.413 63.356-20.892 0-11.484-28.375-20.831-63.356-20.831v0zM994.374-12.549c0-23.098-18.891-41.724-42.192-41.724h-316.636v417.384h358.829v-375.66zM1057.797 404.833h-422.185v166.963h379.926c23.363 0 42.259-18.626 42.259-41.724v-125.239zM1057.797 404.833z"  horiz-adv-x="1140" />

    
    <glyph glyph-name="shijian" unicode="&#58900;" d="M512 832q-94.016 0-179.488-36.512T185.504 696.992t-98.016-147.488-36.512-178.496 36.992-178.016 98.496-147.008 147.008-99.008 178.496-36.992 178.496 36.992 147.008 99.008 98.496 147.008 36.992 178.016-36.512 178.496-98.016 147.488-147.008 98.496T511.936 832z m0-876.992q-112 0-207.008 55.488t-150.496 150.496T99.008 368t55.488 207.008 150.496 150.496T512 780.992t207.008-55.488 150.496-150.496 55.488-207.008-55.008-207.008-150.016-150.496-208-55.488zM810.016 352h-279.008V634.016q0 8.992-6.496 15.488t-16 6.496-16-6.496-6.496-15.488v-308q0-8.992 6.496-15.488t16.512-6.496h300.992q8.992 0 15.488 6.496t6.496 15.488q0 12-6.496 19.008t-15.488 7.008z"  horiz-adv-x="1024" />

    
    <glyph glyph-name="yq-jt-r" unicode="&#58913;" d="M617.469 413.925h-330.694v-59.85h330.694l-125.044-119.813h88.426l156.375 149.738-156.375 149.738h-88.426zM69.594 384c0-244.294 198.113-442.406 442.406-442.406s442.406 198.113 442.406 442.406-198.113 442.406-442.406 442.406-442.406-198.113-442.406-442.406zM926.843 384c0-229.106-185.738-414.844-414.844-414.844s-414.844 185.738-414.844 414.844 185.737 414.844 414.844 414.844c229.106 0 414.844-185.738 414.844-414.844z"  horiz-adv-x="1024" />

    
    <glyph glyph-name="lanmaofenleiyiyuangou-copy" unicode="&#58883;" d="M512.805 756.696c-213.96 0-388.017-173.168-388.017-386.006s174.057-385.977 388.017-385.977 388.017 173.138 388.017 385.977-174.056 386.006-388.017 386.006zM512.805 14.56c-197.492 0-358.169 159.76-358.169 356.13 0 196.399 160.679 356.159 358.169 356.159s358.17-159.76 358.17-356.159c0-196.369-160.679-356.13-358.17-356.13zM512.805 659.925c-160.329 0-290.765-129.738-290.765-289.235s130.437-289.235 290.765-289.235 290.765 129.738 290.765 289.235-130.437 289.235-290.765 289.235zM512.805 96.378c-152.094 0-275.841 123.063-275.841 274.312s123.747 274.312 275.841 274.312 275.841-123.063 275.841-274.312-123.747-274.312-275.841-274.312zM540.802 271.441v236.39h-9.138l-65.54-29.003 4.299-9.677c7.87 4.285 14.501 6.442 19.879 6.442 9.313 0 13.962-6.267 13.962-18.8v-185.351c0-17.198-8.599-25.796-25.781-25.796h-13.976v-11.28h113.371v11.28h-12.358c-16.482-0.001-24.717 8.598-24.717 25.796z"  horiz-adv-x="1024" />

    


  </font>
</defs>
</svg>
